/* XPM */
static char *fococlipping_20220217_224051__2_1645134125[] = {
/* columns rows colors chars-per-pixel */
"48 48 214 2 ",
"   c None",
".  c #020102",
"X  c #0B0305",
"o  c #0D0509",
"O  c #0C0B0B",
"+  c #060807",
"@  c #100C05",
"#  c #14020A",
"$  c #1A020C",
"%  c #120C0D",
"&  c #170907",
"*  c #1D1103",
"=  c #14110D",
"-  c #181209",
";  c #140E11",
":  c #1A0B12",
">  c #131313",
",  c #1C1C1C",
"<  c #191719",
"1  c #22010E",
"2  c #261807",
"3  c #341E04",
"4  c #250111",
"5  c #2C0013",
"6  c #2B0B19",
"7  c #350113",
"8  c #3D021B",
"9  c #370215",
"0  c #231A1E",
"q  c #1F201F",
"w  c #3E2401",
"e  c #392306",
"r  c #21201D",
"t  c #2B2412",
"y  c #372A18",
"u  c #2F210A",
"i  c #361625",
"p  c #1F2020",
"a  c #232323",
"s  c #2B2C2B",
"d  c #282426",
"f  c #342F32",
"g  c #333333",
"h  c #3C3C3C",
"j  c #3B3738",
"k  c #30312F",
"l  c #42021E",
"z  c #4B0119",
"x  c #56001B",
"c  c #462A03",
"v  c #4A330F",
"b  c #58360A",
"n  c #54370F",
"m  c #673D07",
"M  c #75321D",
"N  c #4C0022",
"B  c #480A25",
"V  c #5D0029",
"C  c #560528",
"Z  c #45162B",
"A  c #6A002D",
"S  c #67002A",
"D  c #71002B",
"F  c #660D33",
"G  c #7A0036",
"H  c #790236",
"J  c #4D2B31",
"K  c #71460D",
"L  c #6A4C1D",
"P  c #664314",
"I  c #71440A",
"U  c #45423C",
"Y  c #564831",
"T  c #694E21",
"R  c #775929",
"E  c #6E693E",
"W  c #000058",
"Q  c #463D42",
"!  c #573A45",
"~  c #742E4D",
"^  c #454444",
"/  c #4B4B4B",
"(  c #494646",
")  c #5A584D",
"_  c #555454",
"`  c #595956",
"'  c #5C5C5B",
"]  c #595555",
"[  c #53444A",
"{  c #625A4C",
"}  c #61615F",
"|  c #737057",
" . c #75587D",
".. c #5F6161",
"X. c #636463",
"o. c #6C6C6B",
"O. c #686A66",
"+. c #71726E",
"@. c #747472",
"#. c #7B7B7A",
"$. c #99002F",
"%. c #8B003D",
"&. c #840036",
"*. c #92003E",
"=. c #960038",
"-. c #87002B",
";. c #B80039",
":. c #AC0037",
">. c #C4003E",
",. c #CF003F",
"<. c #8D540B",
"1. c #895618",
"2. c #935B14",
"3. c #844F11",
"4. c #8F6018",
"5. c #AC6A1A",
"6. c #A66818",
"7. c #B26C1C",
"8. c #835B24",
"9. c #927136",
"0. c #916D2F",
"q. c #A26722",
"w. c #B66F21",
"e. c #A77526",
"r. c #BC7424",
"t. c #A97B32",
"y. c #C37C28",
"u. c #950041",
"i. c #9B0043",
"p. c #890A41",
"a. c #A30045",
"s. c #AB0046",
"d. c #A60049",
"f. c #A9004A",
"g. c #B40045",
"h. c #B10048",
"j. c #BA0044",
"k. c #B63B47",
"l. c #C60042",
"z. c #CC0040",
"x. c #D20040",
"c. c #B2802F",
"v. c #C9842E",
"b. c #C48A32",
"n. c #DB9C3D",
"m. c #D59539",
"M. c #CE9138",
"N. c #9B8E4E",
"B. c #B7985D",
"V. c #B18A4C",
"C. c #B1A85B",
"Z. c #82827D",
"A. c #8D8C7F",
"S. c #A69A75",
"D. c #AC9363",
"F. c #A9A36C",
"G. c #ACA67B",
"H. c #BBB474",
"J. c #B7AF68",
"K. c #DFA442",
"L. c #DDA75C",
"P. c #E4A845",
"I. c #E1B35E",
"U. c #C7A463",
"Y. c #DAB574",
"T. c #EFBD64",
"R. c #232383",
"E. c #9A7DA8",
"W. c #858484",
"Q. c #8D8E8C",
"!. c #8B8884",
"~. c #92928D",
"^. c #9A9A96",
"/. c #9C9D9B",
"(. c #969592",
"). c #A2A29A",
"_. c #A4A38E",
"`. c #A3A3A2",
"'. c #A9A9A5",
"]. c #ADADAA",
"[. c #B3B2A9",
"{. c #B6B6B2",
"}. c #BDBDB9",
"|. c #B9BAB5",
" X c #C8B38B",
".X c #C6BDBD",
"XX c #D294A9",
"oX c #C5C19F",
"OX c #EAC98A",
"+X c #F9D58D",
"@X c #C2C2BD",
"#X c #D0CDAE",
"$X c #EAD4A5",
"%X c #F6DCA8",
"&X c #FCE2A8",
"*X c #FAE5B2",
"=X c #C5C5C2",
"-X c #CCCCC5",
";X c #CECECC",
":X c #C8C8C4",
">X c #D2D2CC",
",X c #D3D3C7",
"<X c #D3D3D1",
"1X c #DADAD5",
"2X c #DCDCDA",
"3X c #E0E0DE",
"4X c #EBE9D7",
"5X c #E6E6E4",
"6X c #EAEAE6",
"7X c #EEEEEC",
"8X c #F5F5F4",
"9X c #FDFDFD",
"0X c #F8F8F7",
"qX c #F2F2EF",
/* pixels */
"                                                                                                ",
"                                            X # 3 w c m                                         ",
"                                      . e b K b I <.5.r.1.P c X                                 ",
"                                      X P 7.r.5.6.5.y.m.y.r.6.b *                               ",
"                                    . 3.b.n.v.n.v.v.n.K.6.5.b.b.I 2                             ",
"                                    2 q.m.K.P.P.P.n.y.y.n.e.2.K.7.3 &                           ",
"                                  2 q.b.2.1.m.q.M.m.7.r.K.8.e r.y.3.c .                         ",
"                                  * 2.<.3 2 2.* b I P w.7.b u w.6.m w X                         ",
"                                  & w w P L e o.R.W * 1.b * 2 <.c @ X                           ",
"                                    . . N.J.t OXE. .T c L L b e X o #                           ",
"                                      X R V.R Y.+X+XOXS.OXL.1.X                                 ",
"                                    . o 6 y y U  X*X*X%XV.L 2                                   ",
"                                    . X.A._.@X[.) Y t.t.r.T > +                                 ",
"                              . > j U | N.Y.6XJ.t t e.e.v Y _ +                                 ",
"                              . j /.{.C.J.oX1X,X} h j - m c o 4 7 X .                           ",
"                                # + > Z.F.H.6X0XqX4XG.= c 2 4 i.;.7 .                           ",
"                            o X q ' h O E H.|.3X0X4XF.- x 9 5 s.,.7 .                           ",
"                        . . X . < ( s O { S.'.:X3X#XN.- *.S @ z ;.7 . .   + .                   ",
"                          # + ' +.h + # f ' `.@X,X#X_.- 5 1 . # :.9 . . : _ o.X.                ",
"                          X . ' X.0         g /.@XoXN.* . . . $ :.7 . . . r o.|.~.>             ",
"                          . . O + .         > Q.@X,X_.O . . . # =.5 + > > O ` }.`.g             ",
"                          . d O . .         > Q.@X,X].O . . . # %.5 h /.o.o.W.].2X;XO..         ",
"                          o.@XU .       . > ` {.@X-X:XX.= . . # %.1 ! XX@.].X.h =X;X` .         ",
"                      . g 3X2X^ .         k ~.3X<X<X5X`.' ( s o S J M k..XQ.' O.2X3X...         ",
"                      . k 1X<X^ .             +.{.;X/.< _ } h = T R 9.N.( } ^.<X=XO.j           ",
"                      . s }.-XU +           > O.'.{.W.O . . . @ n R D.$XS.) _ X.X.              ",
"                      . t U.$XU.0.+         q ].;X(.a O / ` / j + u E T.I.2 .                   ",
"                      . y OX*X&XD.+       a Q.@X].O.+ g / h , , 6                               ",
"                        y V. XB.9.X     s _ ;X@X( o X 6 O + > h = ..X.s                         ",
"                          @ @ @     . a ^.2X6XQ.a . $ %.4 . > ^ O 4 J o.g                       ",
"                                      -X6X1XZ.k + # N u.$ . < ^ % G &.Z .._                     ",
"                          . X ^ ` #.3X6X/./ O ^ < 9 s.s.4 . < _ > %.h.u.V ' o.o.                ",
"                    . ^ _ X.#.}.2X5X3XW.a + s / < 8 s.>.A 7 p X.> $.z.g.a.V ! O.O.              ",
"                s o.W.}.5X8X9X9X8X=X] F 4 > / d C G s.z.h.V p X.; $.x.z.f.f.V j {.#.^           ",
"              ` [.5X8X9X9X9X8X<X(.J H u.8 a X.> G g.l.z.h.V , ..; $.x.l.f.f.i.F ! ).^.' .       ",
"          d ~.-X9X9X9X9X7X}./.( B u.i.9 f ' W.0 G g.z.z.f.V > / % $.x.z.z.s.f.a.&.0 Z.!.>       ",
"        O ].6X9X9X9X9X-X!.Z i H i.d.i.4 / @.[ p.s.j.,.,.h.V < / % $.,.,.,.g.f.f.u.X +.|.Z.O     ",
"        ' 2X9X9X6X].Q.! C i.i.d.d.i.A $ ..@.; u.l.z.,.,.s.V p ..% =.l.,.z.,.j.f.u.z [ (.).+     ",
"    . s <X0X8X>X@.> 5 G d.d.f.f.d.%.o > h Q N u.l.x.z.,.g.S < ' f C %.,.,.l.=.A A A 5 ` }._     ",
"    j @.8X6X(.X.    N C A i.V C F ~ _ @.k 4 a.g.l.z.;.D V i j X.W.a z ,.g.S l       . X.8X.Xp . ",
"  . o.-X>XO.              l S A C a h #.g 4 a.z.,.,.>.-.D B p j @.a l =.N           . ..8X}.a . ",
"  . @.-X`.,                 8 B 6 O j ..s o 8 z z D g.>.f.C . O _ a $ 9             . _ <X).< . ",
"  . @.].g                 X . a ^ @.!.g >           6 7 7 i g h ..@./ .             . h W.g     ",
"  . _ o.+                     < p f ' <                     ; > h ' / , q < :         O <       ",
"      o .                 . ; / ..( O                         . + f ^ _ _ _ ^ d q               ",
"                      d g ^ @.Q.W.` O                         . . o O + O h ` ' h o             ",
"                    . a h _ } ^ g d %                                                           ",
"                      . . . . . .                                                               "
};