/* XPM */
static char *_71b19ddf81e44558895fbc51ca90ee1XdIW3Or38as5UnUU[] = {
/* columns rows colors chars-per-pixel */
"48 48 239 2 ",
"   c None",
".  c #020102",
"X  c #0A0305",
"o  c #0C0903",
"O  c #04020C",
"+  c #0A0508",
"@  c #0B0A0B",
"#  c #14020A",
"$  c #170809",
"%  c #191604",
"&  c #030111",
"*  c #03011B",
"=  c #09041F",
"-  c #110E11",
";  c #141214",
":  c #1C1B1C",
">  c #19141A",
",  c #2A030D",
"<  c #271903",
"1  c #361E02",
"2  c #310011",
"3  c #3C0113",
"4  c #2D0B13",
"5  c #2B2A01",
"6  c #392504",
"7  c #342416",
"8  c #322D0D",
"9  c #040122",
"0  c #0C0B25",
"q  c #06012C",
"w  c #0B0929",
"e  c #060133",
"r  c #07013B",
"t  c #0B0435",
"y  c #150E2D",
"u  c #231C21",
"i  c #2D1539",
"p  c #2A272A",
"a  c #342C34",
"s  c #393838",
"d  c #2F2931",
"f  c #450515",
"g  c #59001C",
"h  c #65031E",
"j  c #7B111F",
"k  c #4D2B02",
"l  c #462703",
"z  c #583601",
"x  c #472D18",
"c  c #522F0E",
"v  c #683B05",
"b  c #713C00",
"n  c #6C0123",
"m  c #790324",
"M  c #523A25",
"N  c #44363E",
"B  c #6D3A33",
"V  c #5B5B00",
"C  c #694604",
"Z  c #744703",
"A  c #7A5602",
"S  c #68500E",
"D  c #7A7901",
"F  c #6C4A29",
"G  c #77492A",
"H  c #755736",
"J  c #090343",
"K  c #09024B",
"L  c #090246",
"P  c #181647",
"I  c #0A0154",
"U  c #0A005A",
"Y  c #0F0956",
"T  c #120A56",
"R  c #1A1656",
"E  c #12054E",
"W  c #33304E",
"Q  c #0A0064",
"!  c #0C016B",
"~  c #1E1D63",
"^  c #0C0075",
"/  c #0D007B",
"(  c #120A6D",
")  c #341770",
"_  c #262670",
"`  c #25145D",
"'  c #463B46",
"]  c #473B46",
"[  c #4F3248",
"{  c #4C434C",
"}  c #474647",
"|  c #5A4D5A",
" . c #534C54",
".. c #5B545B",
"X. c #5A5757",
"o. c #49475E",
"O. c #725C47",
"+. c #736A54",
"@. c #4D4969",
"#. c #665A66",
"$. c #686668",
"%. c #736373",
"&. c #786B75",
"*. c #747474",
"=. c #7C797A",
"-. c #706C6F",
";. c #92032C",
":. c #9D0131",
">. c #83002A",
",. c #AB0035",
"<. c #A30033",
"1. c #BB003B",
"2. c #B50038",
"3. c #B81636",
"4. c #B42E29",
"5. c #C5003F",
"6. c #CB003F",
"7. c #D31639",
"8. c #D92F34",
"9. c #864A01",
"0. c #895801",
"q. c #985601",
"w. c #845619",
"e. c #996400",
"r. c #8D7D00",
"t. c #A86500",
"y. c #B26801",
"u. c #AE7700",
"i. c #B97301",
"p. c #835A34",
"a. c #8E4C2E",
"s. c #966738",
"d. c #9B7437",
"f. c #A76C27",
"g. c #B87835",
"h. c #B0782D",
"j. c #B75213",
"k. c #C57B01",
"l. c #C97D02",
"z. c #C67602",
"x. c #CF6C17",
"c. c #CD762E",
"v. c #CE0040",
"b. c #D20040",
"n. c #B47C4B",
"m. c #996559",
"M. c #C55C6C",
"N. c #8B8C00",
"B. c #958D01",
"V. c #B69205",
"C. c #BDBD01",
"Z. c #B08933",
"A. c #C88401",
"S. c #C79900",
"D. c #D38F04",
"F. c #E99A03",
"G. c #F39D03",
"H. c #CAA601",
"J. c #D7B802",
"K. c #D6B913",
"L. c #FAA301",
"P. c #E6A701",
"I. c #CD882B",
"U. c #F2B833",
"Y. c #E3C702",
"T. c #F1D600",
"R. c #FDF600",
"E. c #FFE200",
"W. c #E7D520",
"Q. c #AF8C5A",
"!. c #948A6B",
"~. c #B38E6C",
"^. c #BEA070",
"/. c #C89653",
"(. c #D9BB7F",
"). c #D4AC72",
"_. c #EAB97A",
"`. c #ECB071",
"'. c #E19E63",
"]. c #FDCC72",
"[. c #F8DB64",
"{. c #0F008B",
"}. c #0E0183",
"|. c #140886",
" X c #1B1388",
".X c #0F0096",
"XX c #100194",
"oX c #11019B",
"OX c #1A0F91",
"+X c #241996",
"@X c #2B2A84",
"#X c #333193",
"$X c #1202A2",
"%X c #1B0DA9",
"&X c #1D0FAC",
"*X c #2217A2",
"=X c #2519B6",
"-X c #3836BA",
";X c #2E26AB",
":X c #44358D",
">X c #74708D",
",X c #514DAE",
"<X c #6B67AF",
"1X c #4B4B9C",
"2X c #2E24C6",
"3X c #322AC9",
"4X c #3B36D8",
"5X c #3732C9",
"6X c #423EE4",
"7X c #413ED7",
"8X c #4646D9",
"9X c #5050C3",
"0X c #7A7AD2",
"qX c #4947E9",
"wX c #504FEE",
"eX c #6565EF",
"rX c #977C8F",
"tX c #8C898C",
"yX c #929292",
"uX c #93888E",
"iX c #A5A3A5",
"pX c #B7B5B7",
"aX c #A197B0",
"sX c #D4BB89",
"dX c #D38694",
"fX c #E6C489",
"gX c #F4D598",
"hX c #FFE28A",
"jX c #F5D5A7",
"kX c #FFE6AC",
"lX c #FFF1B6",
"zX c #FDF5AF",
"xX c #DCCB98",
"cX c #8B8BD1",
"vX c #ACACEB",
"bX c #A3A1E1",
"nX c #EEBBCD",
"mX c #FFFEE1",
"MX c #DFDFDA",
/* pixels */
"                                  v.v.                                                          ",
"                                  v.v.,.:.                                                      ",
"                                  v.5.3 , 5.5.                                                  ",
"                                  6.6.2 4 x.4.m                                                 ",
"            6.6.                  v.5.2 5 R.N.o :.v.                1.6.                        ",
"            1.6.6.6.7.7.1.1.      b.5.2 5 P.J.C.c , ,.b.        ,.f h 6.                        ",
"              b.6.6.c.V.v c ;.:.:.6.6.2 o < B.R.V 5 ;.,.    :.f 4 i.x.6.                        ",
"                  6.f 5 N.B.A S v m >., . . z u.J.Y.6 # m 3 X 6 z t.j.6.                        ",
"                  6.m 3 X < N.S.L.0.z % . . . @ A.L.0.k . % 6 q.k.< 3 6.6.                      ",
"                  5.v.,.X . . 5 Z D.L.w.z z z z y.l.z.y.z q.l.l.k.5 # g g g g n 1.6.            ",
"    v.6.6.,.,.,.3.8.7.3.X . . . . 9.y.K.K.t.V.W.Y.Y.t.q.k.A l V.T.6 o < o . f >.                ",
"      v.2.f 2 # C K.F.z.l < < % % G h.gXgXG.].mXU.P.t.Z c % . N.R.e.q.l.Z 5                     ",
"            n 3 , % z 9.z.k.l.I.Q.fXhX].].[.hXzXh.q.Z.Q._.H . r.E.S.V.S.A.k.e.0.                ",
"                  g # o l k k d.].I.l.[.[.).Z.D z k fXlXlX^.p.G A D r.D V.H.P.L.Z k             ",
"                    n g . - p.f.i.H.H.H.V.~.m.n m.tXm.!.kX^.G 8 . . .   D D A C k l             ",
"              . . . , , . 7 gX/.q.T.R.u.s.MXdX3.M.M.n.^.lXQ.j 3 . $                             ",
"                    X . . u /.g.q.Y.R.u.f.kXjXjXgXjXkXkXgX_.'.a..                               ",
"                        . # l Z V.D.D.9.C n.).kXfX(.(.).Z.g.n.G .                               ",
"                            9.V.T.y.9.i K I [ p.g.c.I.g.p.O.#.}                                 ",
"                        . = ) H y.z 1 y K .XK o x M M M ' } } u .                               ",
"                        O 0 5X;X) x z ` ( E @.>Xd > . O :  .!.s . . X                           ",
"                        y R %X$XoXy % ;X4X8XwXeXbXpXp . . a $.W p @ O e                         ",
"                    . 0 qX6X$X{.! J e }.&X4XqXwX>X&.X.s . . . X.uX: * ! K t     s s s s         ",
"                    _ @X3X;X( Y   E U {.oXoX=X3X:X:XaXtX@ . .  .tX: . . e I K Y ..>X0X<X@X      ",
"                  .  X=XoX{.          e K .XoXoXXXoX+X:X*.s X { rX> . . . . 0 t O W cXcXcX} .   ",
"              . E / Y J r t y         X O q U |.N G G p.f.w.Z w.w.b b b +.tX*.$.X.@.#X,X0X9X,X0 ",
"              . ~ -X-X-X*X*X5X=XoXI e   # . t R B a.S.H.u.S.J.S.y.D.i.v ~.nXuX$.iX=.* W cXvXbX: ",
"                    }.&X#X+X%XoXoXQ I X.O.F ] @XT E c A J.S.k.A.z.b S O.a.7.dXiX=...~ 1X0XcX0X: ",
"                            U I U X.+.sX_.s.' L ~ _ Y y k C 0.C z F H !.Q./.+.W _ 1XvXvXMXyX$.  ",
"                          e ! r o Q._.p.x O q K ~ ~ J q . . . . + x F s.sXzXsX!.W _ #.$.$.      ",
"                      q / }.XXI . < 7 o * ^ +X8X|./ * . . . . . . . o 7 d.`.fXxX7 .             ",
"                  e / {.oX{.9 O . . . * J &X3X6X&X.X* . . . . . . . . . ; 7 7 s                 ",
"              o J .XoXXXQ Y d > . . . ! %XwX3X$X! U d u . . . . . . @ p u                       ",
"            + . 9 U U Y a a W p . . O +X3X3X=X.X9 @ ..| o . . . . . u %.[ a u                   ",
"    . - ; - @ @ s =.*.-.%.| o . . . & 9X6XoX! t W ] #.| O . . . . . u %.%.%.| ] { a . .         ",
"    . X.*.yXyXyXyXpXtX..: ; . . . ! OX4X5Xq & . > u o.{ . O * O . . u %.%.%.#.#.#.] O .         ",
"        d yXiXpXpXiXs o X . . . . -XwX*X! . .       $ - . K .XJ . . > | | | a - - -             ",
"             .*.#.] u .     . . . ;X4Xt . . .           . I $X! e O . @ @ @                     ",
"                            U e . e L & X #             . I $XoXXX* .                           ",
"                        . 0 5X*XU * . . .                 r r ^ .X! U .                         ",
"                        0 P 8X3XoXq . . .                 . . I oX$X^ . #                       ",
"                    . w 8X8X%XXX/ * .                     . . U $X}.Q 9 O .                     ",
"                  J R _ wXwX2X|.J & .                     . . e Q K U XXQ r                     ",
"              . J $X=X-X2X3X2XOXK                         . . q I {.}.K L L * o $               ",
"            $ . W rXW i >X<X*XI .                         . . * e y w . . . O ; *.-.@ @ @       ",
"          > ' %.>XtX#. .' { >Xo..                             X + X.X.O . . } -.-.#.] ] ] u .   ",
"      . @ s $.iXyX>X..{ ] s p                                   . :     + . ; u - - ; ; ; + .   ",
"      . . O @ @ @ @ O O X +                                                                     "
};