/* XPM */
static char *vinicius_leonidas_amuleto1645133761[] = {
/* columns rows colors chars-per-pixel */
"48 48 256 2 ",
"   c #060303",
".  c #160B09",
"X  c #180807",
"o  c #1A1409",
"O  c #170B14",
"+  c #1B1515",
"@  c #080F10",
"#  c #270A02",
"$  c #2C130D",
"%  c #28180A",
"&  c #33120C",
"*  c #3B1B0D",
"=  c #351A0A",
"-  c #2D0D14",
";  c #2A0B18",
":  c #320F17",
">  c #2E1213",
",  c #231B16",
"<  c #2B1B13",
"1  c #28171A",
"2  c #331415",
"3  c #351A15",
"4  c #3B1B14",
"5  c #33141C",
"6  c #351B1A",
"7  c #3C1C1B",
"8  c #3A1618",
"9  c #3B0F02",
"0  c #3B250A",
"q  c #29231A",
"w  c #3D2214",
"e  c #3D221C",
"r  c #382817",
"t  c #3B3517",
"y  c #292806",
"u  c #291724",
"i  c #331221",
"p  c #3E1C22",
"a  c #361824",
"s  c #350C26",
"d  c #282522",
"f  c #3C2C24",
"g  c #372925",
"h  c #3B342A",
"j  c #411F1B",
"k  c #421B14",
"l  c #461500",
"z  c #47290A",
"x  c #493408",
"c  c #55380C",
"v  c #442414",
"b  c #462A14",
"n  c #4B2B14",
"m  c #44241B",
"M  c #49261D",
"N  c #442A1D",
"B  c #4B2B1C",
"V  c #492413",
"C  c #512D1C",
"Z  c #552A19",
"A  c #43321C",
"S  c #4C321C",
"D  c #493618",
"F  c #533315",
"G  c #553915",
"H  c #53341D",
"J  c #59361C",
"K  c #56391C",
"L  c #5A3A1D",
"P  c #593A16",
"I  c #62381C",
"U  c #643B07",
"Y  c #421D22",
"T  c #471929",
"R  c #401B3A",
"E  c #452422",
"W  c #4A2624",
"Q  c #452A23",
"!  c #4C2B23",
"~  c #45232A",
"^  c #4D2C2A",
"/  c #472829",
"(  c #522E24",
")  c #522A27",
"_  c #4D3223",
"`  c #493729",
"'  c #543423",
"]  c #593623",
"[  c #563923",
"{  c #5A3B23",
"}  c #55342A",
"|  c #5A362B",
" . c #563A2C",
".. c #5B3B2A",
"X. c #442B35",
"o. c #4A3B35",
"O. c #583833",
"+. c #643929",
"@. c #613933",
"#. c #46451A",
"$. c #5C431C",
"%. c #564619",
"&. c #584E0F",
"*. c #654618",
"=. c #764916",
"-. c #6C591D",
";. c #755915",
":. c #6C510B",
">. c #6F6615",
",. c #4B4628",
"<. c #5C4125",
"1. c #5E422C",
"2. c #544526",
"3. c #54443B",
"4. c #57522E",
"5. c #634221",
"6. c #61412B",
"7. c #6A4824",
"8. c #6A5728",
"9. c #775A26",
"0. c #705435",
"q. c #79652C",
"w. c #766533",
"e. c #727127",
"r. c #483445",
"t. c #685E5D",
"y. c #7B7350",
"u. c #555049",
"i. c #885717",
"p. c #89681A",
"a. c #95781C",
"s. c #8D7916",
"d. c #B2711B",
"f. c #855A28",
"g. c #95582C",
"h. c #846629",
"j. c #966828",
"k. c #897727",
"l. c #96782A",
"z. c #846935",
"x. c #897636",
"c. c #947A37",
"v. c #976D35",
"b. c #A37C28",
"n. c #AA752D",
"m. c #917149",
"M. c #A17F40",
"N. c #907569",
"B. c #99811F",
"V. c #9B8528",
"C. c #9B883A",
"Z. c #94953A",
"A. c #8A8832",
"S. c #A98825",
"D. c #BB8628",
"F. c #A68835",
"G. c #A99439",
"H. c #B99A39",
"J. c #B3932C",
"K. c #B1A23B",
"L. c #E19E1C",
"P. c #D9B31E",
"I. c #CB9F39",
"U. c #CF9A30",
"Y. c #D5A92A",
"T. c #CBB02F",
"R. c #CBA536",
"E. c #DBA434",
"W. c #D5A738",
"Q. c #C8B638",
"!. c #D9B537",
"~. c #CFA526",
"^. c #E6AC28",
"/. c #E4AE3A",
"(. c #E6A639",
"). c #E8B93A",
"_. c #F1B136",
"`. c #E09538",
"'. c #DDC53F",
"]. c #ECCD3C",
"[. c #988944",
"{. c #94904B",
"}. c #A99441",
"|. c #A98F4D",
" X c #A7A449",
".X c #A9A358",
"XX c #B7AB4D",
"oX c #989370",
"OX c #A4966C",
"+X c #A69D72",
"@X c #BAB566",
"#X c #BBB773",
"$X c #AFA96E",
"%X c #D4AC48",
"&X c #C6B447",
"*X c #D9B846",
"=X c #CDB04E",
"-X c #E8A945",
";X c #E8BA46",
":X c #F2B747",
">X c #E4B552",
",X c #C5B868",
"<X c #D4BE66",
"1X c #CBAD65",
"2X c #E4BB69",
"3X c #BAC157",
"4X c #D8C648",
"5X c #DBC857",
"6X c #DCD35C",
"7X c #E9C447",
"8X c #F4C848",
"9X c #F8D748",
"0X c #EAC557",
"qX c #F6CA57",
"wX c #E7D457",
"eX c #FBD755",
"rX c #EED24B",
"tX c #F6E84A",
"yX c #F9E758",
"uX c #FFF75C",
"iX c #E8E15F",
"pX c #D3C763",
"aX c #D2CD6C",
"sX c #EBDA69",
"dX c #FCDB66",
"fX c #E9D071",
"gX c #FCE668",
"hX c #FDF477",
"jX c #F9EB72",
"kX c #907F89",
"lX c #938E89",
"zX c #AF9985",
"xX c #96A898",
"cX c #ADA887",
"vX c #AAAAAC",
"bX c #C9BD8E",
"nX c #C5BDB2",
"mX c #BDC095",
"MX c #CDCA87",
"NX c #E4DA87",
"BX c #EACF8F",
"VX c #FDFC8A",
"CX c #FCF996",
"ZX c #EFE68E",
"AX c #FEFEA5",
"SX c #FCFBAB",
"DX c #F3EEAC",
"FX c #D9DDAB",
"GX c #D7CFD5",
"HX c #F8F7DA",
"JX c #FAF2CD",
"KX c #F7FCE8",
"LX c #FEFCFE",
"PX c #F9FEF9",
"IX c #E4EEF0",
"UX c #D3EDCA",
/* pixels */
"E / m 7 m m / j ! 3 m M m B m j o < o O i Y ^ Q M n B b , + u o i - E _ m m M M M Q g ; 5 p : : ",
"w ' S n B H H B K v ' <.H $.6.] <   h g > 7 M B [ { L r h 1 . < 4 2 m S [ <...H K ..B j m } _ 4 ",
"2 _ } _ ! } M ' ..) ! | ] ' [ ' o q d X 2 j = w B [ <.= < q o e E 2 & 4 V ' [ { P } V n m { { m ",
"w B { ..{ ..H L H ] = v <.{ K *.q . . < e O.| ..[ <._ r q   % N ^ g 7 m } } ' [ <.^ n L W | L Y ",
"Q w ' [ ] } { { [ ..= v @.H F J A X q h $ N Q t A A Q % h X < _ ! } W 4 m { { { L W B { Y } n 7 ",
"E 2 7 w m 7 m j 7 m 8 ^ ..} ..| _ % . , g Q / % f f f < , O < v z H [ ! H { K P F E ' J v ' n 8 ",
"Q ! B B B B B M M B ( { [ H { B B % . q q o h d q g X g + O ^ ' ] H { [ ] [ H ..H ' ..{ H ....! ",
"3 } m M } ) E ! Q _ M N n v M W C w + + o q , + + q r   q g e B ! E M m M ! m m ! E m M V m ^ 7 ",
"M ..| ! W ! ..[ v 7 / <.[ | | J K `  X%.+ r o O . q d # C.MX#.Z m ..[ B ] } ..P D ' ' ' L F @.! ",
"B _ b 4 7 m V [ 5 i 3 n P { H { q zXjXaXt @ h   , q   9.).gXZ.; M ( * B [ +.{ J [ M m ^ ..K ..Q ",
"m [ S S ! } * B a ; 7 L K L L L h BXS.&Xx.X a @ u , , z d.qX6Xo E g & } J P K | ' 4 2 5 g 2 6 2 ",
"b { { b m O.j ' H b ! 1.] ] { C 4.!.d.G.G 7 X , y % ` 3 f.;XiX,.5 2 2 ' <.G [ { ' v Y i : > 2 a ",
"! ' { * & E E } L 5.K [ ......( 4.7Xn.S.f ^ 2 5 <.{ ` = =.R.eX` ; 5 M ..J C { L P L ..E 2 : 5 2 ",
"M ' <.' j 2 2 8 B [ $.[ L J { M %.R.g.S.N 6 s p | ' <.b f.`.eXD ; E Z { ] | +.I L I 1.m e m ) m ",
"! ..S { _ 3 3 7 a w D [ S b 2.w / }.U k.0 + s # x S { & :.J.Q.t - $ # w ] } } B ! ! _ r Q N O.B ",
"v 1.z D 1.o.,.,. .#.A / 3.1.2.e w $.x n m % t r.3.,.% b D %.-.X.h o.o.h 3.r ,.3.r.o.o.` 3.e } = ",
"( _ g G.qX0XdXyXrXhX{.zXPXPXDXgX:X`.R./.%Xq.).CXLXHX:.4X7X>X7X0X0X*XsXZXZX0.DXAXVXSXDXSXcX! { b ",
"k O.0 v T.-XS.F.F.K.;.<XLXKXLXSXiX:X~.(.U.:.;X*XFXJXw.fXrX).).%XU.(.L._.uXe..X#X$XMXAXZXb [ { X.",
"c ] 6._ 7.;X=.9.l.>.S.gXVXKXLXLXJXhX8X_.;Xq.].9XeXhXy.KXVXtXqXdX8X-X_.-X].qXz.C.e.w.DX%.^ b B 4 ",
"! M Q  .i x.%Xk.).eX9XR.}.$XxXvXxX$XF.j.i.*.i.p.l.k.1.vXcXV.S.a.n.s.l.m.D.-XgXgX[.CXOXX k W g Y ",
"j ) w k W < *XS.l.7X;XK.+.a.XX.XOXN.{. Xk.2.4.,.#.%.$.e.{.OX|.G.D.G.e.z U.^.I.k.hX,X= ^ ] E ^ j ",
"k G } F [ b K v.I._.8XrX=Xl.hXJXLXPXKX#XZ.}.J.h.x.G.V.m.nXLXHXVX9XrXF.H.L.(.R.m.&X8.N ! ) S H n ",
"W Q 2 m $.5._ 7.'.E.>XrX7XY.p.aXFXGXlXmXpX-.m.fXG.l *.J.H.lXGXUXpXh.T.8X/.%X~.).x W <.%.M Z 7.e ",
"N ) > 6 } ' +.t b.:XY.;X8X/.z.>.A.{.fX6XA N.AX6X8X&Xz { J.>X|.[.A.m.4X8X:XE.;XS.N { L _ i T J Q ",
"B  .> 5 ^ { L J h %X(.).*Xp.c.=.w.V.b.  y eXK.  x U.%.  # ;.k.l.c.pX{.5X8X7X=Xb F ] ..! : m L N ",
"m ..m > 7 B ] J w %.-XW.!.z. .0 3 r y @ < dX{.  o +.b   z.2XQ.4X4XDXlXZXqX'.} b { { { 8 - e <.M ",
"m { K & > 7 ( ' n 6 m.-X-X!.=.*.:.*.1X{.  z.uXZ.f.x.X 8.fXz.8.9.9.lXIXHXVXp.m N L { } 6 5 7 <.M ",
"! J L e i : 7 ! D _ 0 I._.:X9Xh.i..XF =X$Xt.aX5Xj.>.[.wXz.z n.i.9.CXKXKXGXv S ' L [ M 2 i E <.m ",
"Q K P ) a s - 6 E ] ] &.F.F.V.C.-.4X Xx x.#X#XBXNX,X!.q.z d.-X>.b.B.bXnXr.n O.4 +.' 0 - 5 E [ m ",
"W [ K } p p 2 > 7 / L ! r s.j.a.<.~.dXXX8.F.eX@X=XwXq.0.@X0XU.#.i.v.S.A % z H ^ L [ n m 5 w [ E ",
"E ..L H ! M B e 6 ~ B @.z [.:Xf.H.).R.eXwXx.}.+X}.Z.xXAXCXjXY.H.h.*Xf.0 g | B ) J [ { O.E w { W ",
"N { L C H n ..} 4 a D c @.n e.&.-.q.&.l.0Xs.A.NXZXt.vXHX[.c.z.w.$.:.z ~ ! L k Q +.[ L { ^ v <.E ",
"B } ! V M j H L K E ! I { ( *.wX-X8X8XJ.b.w.;.fXNXy.lXcXXXH.C.sXwXn ! K B ! n B L { K } L ! ..M ",
"! ' B ! } ! } ] { ' [ H H } n 9./.Y.7X'.l.c.w.hXaX.X3XZ.aX=X.X@Xc.0 E v N O.^ } H ] G ) F ! ] M ",
"w S b n M M ! v v n H B m C v 8 G.^.>XF.*X;.0.tXQ.q.aX X+XFXcXoX* V E ! S m E v M V B B V B B m ",
"B ..[ +.] ..| ! W Q ! } { K | O.A 4Xj.|.C.S G.k.A.pXq.@XcXoXnX` } ..$.[ } 6.L @.[ [ ! ..{ ....E ",
"m ! v ' H J H C H ! 7 } +.K H { k w.I.I +.&X8XJ.5XuX5XA.oXGXkXz +.K c w - S c ' [ H 4 { ..[ } 3 ",
"E j & B ..L J { c ..E H $.{ [ P +.O v.^.P.wXqX8XeXsXyXuXVXlX0 { K O.{ ! s E *.( { S 8 ] ] K M 2 ",
"! ) 8 m ..{ { ..G ' E J J | ] L e u d 9.0.a.k.h.9.p.l.z.w.r b E S m ! e p ..L | { B Y ! m ] j : ",
"v ..Q 2 B H ' B O.^ v L J ..] L T 9 5 t R.>XE.Q.W.!.pX4Xx E Q H V } Q ! H n H { { M ~ v 2 ] a i ",
"b  .m ; i > 5 i 4 m [ H L L { ' < 8 7 D q.).(.8X7X8XeXq.i k Y g m 4 m 8 j m ' { L B m } 4 i 5 a ",
"b ..m ; a m $ 5 2 ! ..{ J ] | k 5 ; ~ ..k |.!.-X'.8XF.0 $.] P ' H ' { ' } ' { L H Y i W v * 2 2 ",
"b ..m 7 Q ..M 6 7 ! ..[ J ] { v 8 5 2 I T x Q.(.7X!.N } j E m Y E j m j j M } [ ' 7 5 ! ' B 7 2 ",
"Q ' z } B ..6.j _ V ] { J J ..[ Z g = 7.@.0 q.!.;X-.S | B _ B C ! B ( ! B ( ] K K ' 4 { ..O.p 7 ",
"W B n ] v H H m ..v F K J K H { @.B e [ ] 6.7 c.p.4 $.H B ' m ( ! V ! B ! B ] L K [ M { ' _ m m ",
"E V [ _ B { k [ [ V H H L { { H } c Q A L I ' A V {  .G M j a / E j m 4 m M } ] L Q E V L K [ B ",
"e B [ B } } v  .' M | ] ] ..] {  .c [ ..] 5.5.Q } ..'  .c @.J K ] [ <.....{ { J [ Y p v K { ..V ",
"e _ n M ^ m S M ! m ( M C B v B E m C W ^ b E n N ! ) 0 ^ j C f B n B M M M B B n ! ! [ V W ) j "
};