/* XPM */
static char *fococlipping_20220217_231257__1_1645136020[] = {
/* columns rows colors chars-per-pixel */
"48 48 243 2 ",
"   c None",
".  c #0D0C0D",
"X  c #120D0E",
"o  c #0E110E",
"O  c #15110B",
"+  c #1A130C",
"@  c #0E0C12",
"#  c #120C13",
"$  c #130C1B",
"%  c #170918",
"&  c #0E1416",
"*  c #131314",
"=  c #15141A",
"-  c #1B141D",
";  c #1C1B1D",
":  c #1B1514",
">  c #25150C",
",  c #35160E",
"<  c #220D17",
"1  c #3B0F17",
"2  c #2B1B13",
"3  c #271615",
"4  c #371A18",
"5  c #2E0A0D",
"6  c #1B201A",
"7  c #2A2419",
"8  c #382518",
"9  c #150B23",
"0  c #1A0E23",
"q  c #150D2B",
"w  c #1C0C2A",
"e  c #1C1423",
"r  c #1E1C24",
"t  c #161127",
"y  c #1D1531",
"u  c #1E0B32",
"i  c #220D28",
"p  c #24192A",
"a  c #220C33",
"s  c #260E3C",
"d  c #241B35",
"f  c #24123B",
"g  c #281737",
"h  c #321F27",
"j  c #1D212B",
"k  c #232324",
"l  c #29252A",
"z  c #35282B",
"x  c #24223B",
"c  c #292937",
"v  c #342A39",
"b  c #34333A",
"n  c #3B3B3C",
"m  c #373637",
"M  c #3E302D",
"N  c #4C0D1A",
"B  c #491716",
"V  c #4F1015",
"C  c #442B19",
"Z  c #55291C",
"A  c #55361B",
"S  c #43361B",
"D  c #653A19",
"F  c #6D330F",
"G  c #4F1529",
"H  c #75172F",
"J  c #473629",
"K  c #533726",
"L  c #493839",
"P  c #4E2A2A",
"I  c #633C28",
"U  c #692635",
"Y  c #752F30",
"T  c #5F4116",
"R  c #744B19",
"E  c #52473A",
"W  c #634925",
"Q  c #774925",
"!  c #755529",
"~  c #785938",
"^  c #6C5133",
"/  c #6D612E",
"(  c #77643D",
")  c #2A0F46",
"_  c #2B1444",
"`  c #2C1945",
"'  c #341749",
"]  c #341455",
"[  c #371759",
"{  c #2D1451",
"}  c #342A48",
"|  c #3C3344",
" . c #383647",
".. c #382559",
"X. c #383656",
"o. c #2A254B",
"O. c #3A1466",
"+. c #3E176E",
"@. c #3C2766",
"#. c #3E2F6E",
"$. c #443B45",
"%. c #463A58",
"&. c #4F2954",
"*. c #7C2C4A",
"=. c #411566",
"-. c #450F67",
";. c #433969",
":. c #493874",
">. c #4D3375",
",. c #42145A",
"<. c #3E414F",
"1. c #49444A",
"2. c #4B494C",
"3. c #464546",
"4. c #58494D",
"5. c #494654",
"6. c #544B56",
"7. c #585659",
"8. c #4E5559",
"9. c #6C4E4D",
"0. c #6A6556",
"q. c #74634A",
"w. c #494765",
"e. c #585667",
"r. c #484573",
"t. c #534B79",
"y. c #55597A",
"u. c #504F66",
"i. c #675B67",
"p. c #6A666B",
"a. c #73646E",
"s. c #6A6777",
"d. c #746776",
"f. c #77767A",
"g. c #961738",
"h. c #851D38",
"j. c #862A31",
"k. c #B83B36",
"l. c #885617",
"z. c #904F16",
"x. c #A76A16",
"c. c #BB7B1B",
"v. c #B16315",
"b. c #875626",
"n. c #865A38",
"m. c #905532",
"M. c #856638",
"N. c #957337",
"B. c #956E2A",
"V. c #A6702C",
"C. c #B87A26",
"Z. c #A9763A",
"A. c #B87C30",
"S. c #AA6632",
"D. c #C4781E",
"F. c #C47C22",
"G. c #C54233",
"H. c #AE1E45",
"J. c #9B3856",
"K. c #8E3049",
"L. c #AB2C4B",
"P. c #B3224B",
"I. c #A92A54",
"U. c #B72556",
"Y. c #B83659",
"T. c #AA3558",
"R. c #B23666",
"E. c #C31F45",
"W. c #C02158",
"Q. c #C83C68",
"!. c #8A544C",
"~. c #977643",
"^. c #8B6D53",
"/. c #907051",
"(. c #A57A47",
"). c #B16C4C",
"_. c #994B66",
"`. c #AD486B",
"'. c #B35073",
"]. c #8D756E",
"[. c #A85668",
"{. c #C64A4E",
"}. c #C77D46",
"|. c #C95175",
" X c #B78836",
".X c #B58737",
"XX c #CA8935",
"oX c #CC902E",
"OX c #D1A836",
"+X c #F2B73A",
"@X c #B48548",
"#X c #A9835B",
"$X c #B68B58",
"%X c #BB9A43",
"&X c #928C6F",
"*X c #A88666",
"=X c #B09470",
"-X c #BDA374",
";X c #8E8152",
":X c #C99549",
">X c #CB8E4E",
",X c #D8A845",
"<X c #DDAD4C",
"1X c #E7B352",
"2X c #DE9E60",
"3X c #D7B072",
"4X c #F2B869",
"5X c #DDD177",
"6X c #EAD279",
"7X c #DEC451",
"8X c #573C89",
"9X c #683D92",
"0X c #5A448A",
"qX c #584889",
"wX c #594998",
"eX c #5E5292",
"rX c #5B5883",
"tX c #64588C",
"yX c #644D93",
"uX c #645494",
"iX c #776882",
"pX c #6B689A",
"aX c #756F90",
"sX c #6B5DA6",
"dX c #716EAC",
"fX c #85788D",
"gX c #AD728E",
"hX c #CF6994",
"jX c #7082B0",
"kX c #7885C7",
"lX c #87818F",
"zX c #B4A985",
"xX c #8589B0",
"cX c #9AA2BE",
"vX c #D2BA8B",
"bX c #E4BE99",
"nX c #D58BA7",
"mX c #E4C782",
"MX c #E3CB96",
"NX c #F2D9B4",
"BX c #F8E9B9",
"VX c #EEE5AE",
"CX c #E5D299",
/* pixels */
"                              `.                                                                ",
"                              P.L._.                                                            ",
"                              I.G j.Y.                                                          ",
"                            nXI.N j.{.Y '.                                                      ",
"            I.U.            nXL.V M.%X1 K.`.          R.R.I.                                    ",
"            hXU.{.{.k.J.    nXI.N ~ ,X%XD *.`.      `.h.P.P.                                    ",
"              R.E.{.).Y J.J.Y.P.V 2 W 7XQ Y J.  !.U Z }.G.P.                                    ",
"                Y.h.K /.! I Y h.1 . 7 .X,Xb.1 *.G 4 W A.k.L.                                    ",
"                U.g.V 4 ( %XOX! 1 X + >  X XI > B Q N.B g.U.                                    ",
"                hX|.g.< O S B.OXR A A A V.F.V.T V.oXB., G H H H P.'.'.                          ",
"      R.U.L.T.`.|.{.g.> : . 8 V.OXA.x.,XOXc.z. XR V.OX, : + 5 Y '.                              ",
"        R.h.V V ).XXS.C 8 7 8 N.mX7XOXVX1XoXz.W 2 / <Xl.V.M.P         o 0.&X, # 0.&XO           ",
"          _.K.G 8 A b. XXX@X$XCX5X5X6XVX(.S.@XvXS / +XoXc.XXA.W 0.  7.3 0.).!.< &X-X+           ",
"              _.U 1 , I F *X5X X6XMX3XN.R *XBXBX/.~ M.N.N.(.oXOXW l 2.: 8 n.3XF #X=XK           ",
"                gX_.G 5 q.@X XoX X@X[.U 9.  lXVX*XJ * & 2.7./ / 8 J (./.W Q }.}.>XZ.b.C > O +   ",
"              & n L 1 3 vX$Xx.+Xx.    K._.(.-XNX^.B l y.w.c j e.x : K (.m.m.2X1X<X>X>X/.0.0.;   ",
"                  m 6 > &XZ.x.1Xv.>XBXNXbXbXMXMX=X9.* } @.:.sXkXX.| ].#X>X2X4X<X2X>Xn.9.J 3.    ",
"                      M A l. XoXl.n.=XzX=X^.E 3.z < u ] 9X8X#.sXt.@.g z K n.#XQ Q W M           ",
"                        M..X%XW E ;.;.y X.5.5.u.` ) [ O.] { ) ) ;.;.f f $.$.z > O               ",
"                          /.^ e.jXsXwXuXqXr.X.f ) f ) y e.6.$.                                  ",
"                          n c dXkXwXO.>._ q 9 t $ 3.d.O l                                       ",
"                          & w #.sX0X) q w.6.| = . m i.b e |                                     ",
"                            v _ O.] f X.pXdX].m & & c lX%.d z                                   ",
"                              | o.{ @.yXuX8X@.>.e.b l fXb q d d 1.7.<.c  .<.5.7.                ",
"                                  $.) O.-.,.-.,.fX4.h fXd.$.w a s ..%.  tXpX  e.y.e.b           ",
"                                  p @ s ' &.*.m.m.b.Q m./.n.K < { [ _ $.s.lXxXxXcXs.j           ",
"                    p.0 9 9 t x x x y q < Z b.:Xv.F.XXv.oX X~ v ` ` L f.4.%.X.dXxX  aXb         ",
"          | u a g g { ] >.:.r.y.y.rXeX:.X.d 4 ! (.XXD.XXb.!.aXxX .v i.    9.G fXd.y.aXk         ",
"        d ' ,.O.O.;.8XwX0Xt.w.$. .o...qXuXt.X.p Z b.A.D G s o.y.u. .r     *.U < $.    p         ",
"      $.' ] -.+.0XqXw.X.%.$.1.a.d.X.q f y o.X.$ X 2 8 + M L i f X.e.e.<.m 4.I ^.~ P 2.7.        ",
"    i.i ' ] ] g } 7.e.- i.a.a.a.$.s o.tX[ _ y e # X . # 8.2.p e e x b k 8 Q S.mX3X/.>           ",
"  3 l g v i |         p 7.i.a.7.g ' 8XdX>.) p 7.v : . @ * 3.      2.=   J ^ $XM.*X].7           ",
"  7.p r                 b 6.<.- ` qXdX+.[ ` $.a.6.z @ . . m                 2 > 2 J             ",
";                           n 0 :.wX9XO.i  .p.1.4.m . # . o o                                   ",
"                            n t pXwX{ d e k $.1.  6.. . . . =                                   ",
"                          6 e o.pXr.u r 7.          : & . . k                                   ",
"                          2.x dX;.y c               f.6 # # & j                                 ",
"                        k * x tXx o :                 e t 0 @ o                                 ",
"                      6.c t t y = m                   9 g s $ O 2.                              ",
"                      t t.#.y 0 . 3.                  9 ' ) $ o o b                             ",
"                    iXx pXqX` 9 ;                     - < f f 9 # p c                           ",
"                  b  .aX:.[ ) e f.                      n y [ { % # l                           ",
"                x } r.jX0X[ w $                         l w ` s s _ { d                         ",
"              e ` :.yXwXwX%.} 1.                        # 0 _ ' ) ) f $ 3.                      ",
"            p.p iX%.,.aX;.a g                           # e y d e X # * 2.p.3.=                 ",
"          L 2.7.fXa.6.5.d.6.=                             1.- d.| ; ; p.f.p.1.2. .*             ",
"        ; n 6.  d.a.8.5.3.6.                                * b   8.- z k k k k = .             ",
"        = m 3.1.$.n r k                                                                         "
};