/* XPM */
static char *_9371149dbb344f8ec250021b3f873cdvtBsfzpFoj1yy3Dz[] = {
/* columns rows colors chars-per-pixel */
"48 48 243 2 ",
"   c None",
".  c #010101",
"X  c #0B0202",
"o  c #01000B",
"O  c #0B090B",
"+  c #0A0706",
"@  c #190805",
"#  c #1A1603",
"$  c #000013",
"%  c #01001B",
"&  c #110E11",
"*  c #1B1A1B",
"=  c #161317",
"-  c #2E010D",
";  c #27050A",
":  c #33020D",
">  c #281902",
",  c #361D01",
"<  c #3B0011",
"1  c #251919",
"2  c #292900",
"3  c #362401",
"4  c #373200",
"5  c #332416",
"6  c #292519",
"7  c #030322",
"8  c #01012C",
"9  c #0C0B2A",
"0  c #010135",
"q  c #01003C",
"w  c #0A0A38",
"e  c #140E2A",
"r  c #221C22",
"t  c #261939",
"y  c #2B292B",
"u  c #332B34",
"i  c #3A3739",
"p  c #312E2F",
"a  c #450412",
"s  c #570019",
"d  c #69021D",
"f  c #7E0F1B",
"g  c #492804",
"h  c #562E01",
"j  c #5C3300",
"k  c #553800",
"l  c #4A3016",
"z  c #663A04",
"x  c #723D00",
"c  c #613611",
"v  c #750022",
"b  c #44363E",
"n  c #523A26",
"m  c #693933",
"M  c #5A5A00",
"N  c #6A4702",
"B  c #764703",
"V  c #7A5501",
"C  c #6E5D04",
"Z  c #7B7901",
"A  c #6D4929",
"S  c #784929",
"D  c #765A39",
"F  c #020143",
"G  c #01014B",
"H  c #0A064C",
"J  c #161548",
"K  c #020253",
"L  c #01005A",
"P  c #0A0958",
"I  c #181458",
"U  c #2B2A55",
"Y  c #353149",
"T  c #010064",
"R  c #01016B",
"E  c #0A0969",
"W  c #1B1B63",
"Q  c #010074",
"!  c #040377",
"~  c #1F1F72",
"^  c #271476",
"/  c #24236C",
"(  c #4A3E4A",
")  c #463A45",
"_  c #4B3148",
"`  c #484348",
"'  c #5C4D5C",
"]  c #544953",
"[  c #5D545C",
"{  c #565556",
"}  c #50424F",
"|  c #725C47",
" . c #736954",
".. c #474467",
"X. c #525366",
"o. c #675A67",
"O. c #5F6060",
"+. c #6A6869",
"@. c #756375",
"#. c #796B77",
"$. c #747373",
"%. c #787877",
"&. c #716D6F",
"*. c #9F012E",
"=. c #930529",
"-. c #830027",
";. c #AC0031",
":. c #BD0036",
">. c #B20133",
",. c #B41130",
"<. c #B62E26",
"1. c #CC003B",
"2. c #C40039",
"3. c #D1003B",
"4. c #D61636",
"5. c #DC3031",
"6. c #834C00",
"7. c #884601",
"8. c #8A5900",
"9. c #995500",
"0. c #87561B",
"q. c #8D4D07",
"w. c #AB5806",
"e. c #867E00",
"r. c #9B6600",
"t. c #AA6700",
"y. c #B36701",
"u. c #B17500",
"i. c #AB740A",
"p. c #835A33",
"a. c #8E4B2D",
"s. c #946937",
"d. c #B87835",
"f. c #AC722E",
"g. c #CA7D01",
"h. c #C57801",
"j. c #CF6C15",
"k. c #C77F33",
"l. c #D96322",
"z. c #B47C4C",
"x. c #826D78",
"c. c #A1644F",
"v. c #C65C66",
"b. c #8A8B00",
"n. c #958C00",
"m. c #BA8B04",
"M. c #B39806",
"N. c #BCBD00",
"B. c #B08832",
"V. c #C88500",
"C. c #D58700",
"Z. c #C89800",
"A. c #D99100",
"S. c #C69710",
"D. c #F39E01",
"F. c #E79B03",
"G. c #CAA501",
"H. c #D7B801",
"J. c #D7B812",
"K. c #F9A500",
"L. c #E6A800",
"P. c #E5A52A",
"I. c #E3C602",
"U. c #F1D600",
"Y. c #FDF600",
"T. c #FFE300",
"R. c #E7D420",
"E. c #AF8B5A",
"W. c #93896B",
"Q. c #B48E6C",
"!. c #BDA070",
"~. c #C79352",
"^. c #F99E5B",
"/. c #D7B176",
"(. c #EABA7B",
"). c #EDB271",
"_. c #C89F69",
"`. c #FDCD71",
"'. c #F8DC64",
"]. c #010084",
"[. c #02008C",
"{. c #0D0B8A",
"}. c #010094",
"|. c #02009D",
" X c #141390",
".X c #292986",
"XX c #363390",
"oX c #0301A3",
"OX c #0A08A7",
"+X c #1614A6",
"@X c #1817B7",
"#X c #100EAF",
"$X c #201FAE",
"%X c #2B28A4",
"&X c #3939BB",
"*X c #2827B9",
"=X c #211990",
"-X c #44398A",
";X c #73708E",
":X c #5050B6",
">X c #5959A1",
",X c #2B2BCA",
"<X c #2625C8",
"1X c #3737C5",
"2X c #3736D8",
"3X c #2D2CD1",
"4X c #3D3DE4",
"5X c #4B4BD1",
"6X c #7676CF",
"7X c #4646E7",
"8X c #4848F1",
"9X c #5251EC",
"0X c #6363EF",
"qX c #837C82",
"wX c #BC7B81",
"eX c #8B868B",
"rX c #949293",
"tX c #9A9A9A",
"yX c #95858D",
"uX c #8180AD",
"iX c #A6A5A6",
"pX c #B8B6B8",
"aX c #A197B2",
"sX c #D9B981",
"dX c #CABD90",
"fX c #D48791",
"gX c #E6C489",
"hX c #F1D397",
"jX c #FFE389",
"kX c #F3D2A5",
"lX c #E6D9A7",
"zX c #FEE3AB",
"xX c #FFF1B9",
"cX c #FDF4B0",
"vX c #D9C490",
"bX c #9191CF",
"nX c #8686D5",
"mX c #8E8ECD",
"MX c #ABABEB",
"NX c #A2A0E1",
"BX c #EFBCCC",
"VX c #FFFEE1",
"CX c #E0E0DB",
/* pixels */
"                                                          3.3.                                  ",
"                                                      *.;.1.3.                                  ",
"                                                  1.2.- < 1.3.                                  ",
"                                                v <.l.> - 1.3.                                  ",
"                        1.2.                1.;.+ b.Y.4 - 1.1.                  3.1.            ",
"                        1.d a ;.        3.;.- h N.H.L.2 : 1.3.      :.:.4.4.1.1.3.2.            ",
"                        3.j.u.; s *.    >.=.2 M Y.n.> + : 1.1.*.*.=.c j m.k.3.3.3.              ",
"                        3.w.r.N 3 X : v @ 3 I.H.u.k . . ; -.-.c N C b.b.2 a 3.                  ",
"                      3.1.< > g.8., ; . g 8.K.V.X . o . # k 8.K.G.n.# X a v 1.                  ",
"            1.2.d s s s s @ # h.C.V.9.j t.h.g.t.j h h j 6.K.A.B > . . X >.1.2.                  ",
"                  < . + # @ 4 U.M.3 V h.9.t.I.U.R.S.t.J.J.y.B . . . . X ,.4.5.,.;.;.;.1.1.1.    ",
"                    3 B C.9.r.Y.b.. > l B t.L.P.VX`.D.jXhXf.0.# > > > , g.F.H.N @ - a :.1.      ",
"                  t.V.V.Z.m.Z.T.e.. A (.~.f.9.d.cX'.'.`.`.kXgXE.B.C.g.h.B h # ; a v             ",
"              6.K.L.G.M.e.Z Z V 0.p.!.xXxXgXh k Z E./.'.'.h.P.`.s.h h g + @ d                   ",
"            g g N C e.    . . . 5 D !.xXW.x.eXx.d a.E.S.G.H.Z.h.f.p.@ . s                       ",
"                              . < v z.xX_.E.v.v.,.fXCXs.u.Y.I.q.~.hX6 . - ; . . .               ",
"                              . A ^.).hXzXzXkXkXkXkXzXf.u.T.I.9.d.~.1 . . .                     ",
"                              .   ~.d.k./.sX`.vXzX/.z.B 6.A.A.m.V 5 @ .                         ",
"                                  +.| D d.k.k.d.p.Y H G t 7.t.U.V.q.                            ",
"                              . * ` ) ( n n l l + G }.G 9 , j y.m ^ 7 .                         ",
"                          . X . i W.{ r . . = u ;X..H ! I h l ^ %X,X9 .                         ",
"                        0 o + y Y o.u . . y pXNX0X9X5X2X%X; e |.OXOXJ J                         ",
"        y p i i     q K R 7 r tXO.. . . i { #.;X9X7X2X#X].0 F Q [.oX7X7X9 .                     ",
"      &X6XnX;X{ P K L 8 . . * qX] . . O eXaX-XXX,X@X|.oX[.R Q     Q *X,X.X.X                    ",
"  + ..bXbXbXu o 0 7 . . . . * qX] . i ;XXX=X|.|.oX|.}.G F           }.|.@X X.                   ",
"  :X:X6X:XXXX.[ +.%.rX .x B B 0.V V 0.f.a.a.m b [.L 8 . .           0 q F P {.K .               ",
"r NXMXnXU o ;XiXO.eXBXQ.x h.C.y.V.H.Z.u.H.G.a.n I 9 . X     T |.*X,X+X+X*X&X1X~ .               ",
"9 6XnXnX-XW X.%.pXwX4.a.| c x g.V.V.Z.G.V g P P .X( A  .[ L T |.oXOX.X%X+X                      ",
"  tXiXCXMXMX-X/ Y  .~.E.W.D A h N 8.B g w H / W F b s.gXsX .[ P L R                             ",
"      $.+.O.U U W.dXcXsXs.A l . . . . . 8 F W W H 8 o l p.(.E.+ 0 !                             ",
"            O 6 lXgX).c.5 . . . . . . . . $ ! {.1X%XQ $ X 5 > . K }.].].                        ",
"                i 5 2 @ . . . . . . . . . 7 |.#X4X<X#XF $ . . . o % [.oX[.].                    ",
"                      r u O . . . . . . r t L Q |.,X8X#XQ . . . * y L R |.|.|.F .               ",
"                  1 u } @.r . . . . . . ' [ X 7 }.@X3X<X=X. . . r ) u u H L L 7 . X             ",
"        . . u ( ( ' @.@.@.* . . . . . . ' o.( Y 0 R |.7X1Xo . . . + ' @.&.&.$.i O O O = O .     ",
"        . . ( o.o.o.@.@.@.r . . o % o . } ] r = . o 8 1X2X XE . . . & * o.eXpXiXrXrXrX$.{ .     ",
"            O O O u ' ' ' = . . F }.G . O O       . . R +X8X&X. . . . . + i iXpXpXiXtXp         ",
"                    O O + . o 0 T oXL .           . . o w 2X%Xo . .     . 1 ` o.%.{             ",
"                          . % }.|.oXL .             X . o F 0 . 0 T                             ",
"                          R Q |.Q F                   . . . $ L +X,X9 .                         ",
"                      X . Q oXoXL .                   . . . 8 oX<X7XJ 9                         ",
"                    . o 7 T ].oXL . .                     . % ! [.OX2X7X9 .                     ",
"                    q L }.L G T 0 . .                     . $ F {.<X7X9X/ I H                   ",
"              O . % G G G ].[.L 8 . .                         G  X<X,X,X<X@XoXH .               ",
"      + O O $.$.= . . . . 9 w 8 % . .                         . H +X>X;XJ U qXY .               ",
"  . 1 ( ) ` o.&.$.` . . . { O.X X                             . ..;X` ` ] o.rX;X@.) =           ",
"  . o & & & & & * & .       = .                                   r Y ` ] o.%.rXiX+.i O .       ",
"                                                                    X + . . o + + + . . .       "
};