/* XPM */
static char *_50c1a69a0944a8dbc57d7443e62e5d1AVpq0yVYmSeqWO4V[] = {
/* columns rows colors chars-per-pixel */
"48 48 145 2 ",
"   c #B6AB9E",
".  c #B2AAA3",
"X  c #BCADA4",
"o  c #BDB2A6",
"O  c #BEB3A9",
"+  c #C3B5AD",
"@  c #C5B9AE",
"#  c #C8B9AF",
"$  c #C6BAB2",
"%  c #CABDB4",
"&  c #CEBFB8",
"*  c #CDC1B6",
"=  c #C3C0BC",
"-  c #CEC3BA",
";  c #D0C1B7",
":  c #D2C5BC",
">  c #D4C9BE",
",  c #D9C9BF",
"<  c #CBC4C0",
"1  c #CEC8C1",
"2  c #CDCACB",
"3  c #D5CBC2",
"4  c #DBCDC4",
"5  c #D2CECC",
"6  c #D7D0C3",
"7  c #DCD1C6",
"8  c #DED3CA",
"9  c #DFD9CD",
"0  c #E1D2C6",
"q  c #E2D5CB",
"w  c #E4DACD",
"e  c #E9DCCE",
"r  c #E5DBD1",
"t  c #EADDD3",
"y  c #E8E0CF",
"u  c #E7E1D4",
"i  c #EAE1D6",
"p  c #EAE3D6",
"a  c #EBE1D5",
"s  c #EDE0D5",
"d  c #ECE3D4",
"f  c #EDE3D5",
"g  c #ECE3D7",
"h  c #EFE3D7",
"j  c #EEE5D5",
"k  c #EFE6D7",
"l  c #ECE2D5",
"z  c #EAE1D8",
"x  c #EBE2D8",
"c  c #EBE2DA",
"v  c #ECE0D8",
"b  c #EDE0D8",
"n  c #EDE1D8",
"m  c #EEE0D8",
"M  c #EFE0D8",
"N  c #EDE2D9",
"B  c #EEE2D8",
"V  c #EEE2DA",
"C  c #E9E7DB",
"Z  c #EDE5D8",
"A  c #EEE6DD",
"S  c #EDE3DA",
"D  c #EDE9DD",
"F  c #F1E3D4",
"G  c #F3E3D5",
"H  c #F0E2D7",
"J  c #F2E3D6",
"K  c #F2E5D5",
"L  c #F1E7D7",
"P  c #F4E5D7",
"I  c #F5E6D7",
"U  c #F6E6D7",
"Y  c #F2E4D6",
"T  c #F4EAD7",
"R  c #F4EAD7",
"E  c #F8E8D7",
"W  c #F0E0D8",
"Q  c #F4E3D8",
"!  c #F2E4D9",
"~  c #F3E7D9",
"^  c #F1E4DA",
"/  c #F4E5D8",
"(  c #F5E5D8",
")  c #F4E7D8",
"_  c #F6E6D8",
"`  c #F6E7D8",
"'  c #F6E7D9",
"]  c #F6E7DA",
"[  c #F7E7DB",
"{  c #F3E6DD",
"}  c #F0E6DE",
"|  c #F5E6DE",
" . c #F2E5DA",
".. c #F8E7D8",
"X. c #F3E8DA",
"o. c #F0E8D9",
"O. c #F4E8D8",
"+. c #F5E8D8",
"@. c #F5E9D9",
"#. c #F7E8D9",
"$. c #F7EAD9",
"%. c #F7EBD9",
"&. c #F5E8DB",
"*. c #F6E8DB",
"=. c #F2E9DC",
"-. c #F3E8DD",
";. c #F0E8DF",
":. c #F3E8DE",
">. c #F3EADE",
",. c #F5EADE",
"<. c #F6EADF",
"1. c #F1EEDF",
"2. c #F4EADC",
"3. c #F8E9D8",
"4. c #F8EBDA",
"5. c #F8EAD8",
"6. c #F8E8DD",
"7. c #F8EADC",
"8. c #F8EBDB",
"9. c #F9F1DE",
"0. c #E9E7E3",
"q. c #EDEBE1",
"w. c #EEEBE8",
"e. c #F1E9E1",
"r. c #F3E9E1",
"t. c #F5E8E0",
"y. c #F4E9E0",
"u. c #F6E8E0",
"i. c #F7E9E1",
"p. c #F3EDE2",
"a. c #F7EFE3",
"s. c #F4ECE4",
"d. c #F5ECE2",
"f. c #F8ECE2",
"g. c #F6F2E5",
"h. c #F8F0E7",
"j. c #F8F2E4",
"k. c #F8F2E5",
"l. c #F5F3EB",
"z. c #F8F5E8",
"x. c #F9F7E8",
"c. c #F8F4E8",
"v. c #F8F8EA",
"b. c #F7F6F3",
"n. c #F8F8F3",
/* pixels */
"q 4 > & 0 0 r r - 8 V q : % r { [ , > J U q o : 8 w > * Y ,.D ^ t 7 z =.y.{ w 4 q : $ % : e G ..",
"q q w - ; 8 i Y 3 - r q 7 $ 8 [ [ q * r [ Q @ $ r z w $ w ^ } =.t 4 r r e q 4 : 4 > : > 4 Q E 5.",
"s 5.5.w + 8 n o.r @ 7 t t & : ^ U e @ 8 &.,.3 $ t n j > : w t i q 7 7 3 : & , : 4 i ,.t.r s o.x ",
"s ,.&.[ > * d &.J & 3 n t q # t U r @ ; ,.D w @ 9 n n 7 - w 3 % & 3 8 4 t Q Q t w [ a.h.D w r & ",
": ^ 5.5.7 X w R 5.0 ; d W r & 1 q s q $ w e.d.4 & w 0 4 & w w 4 q t t q e &.6.{ r 1.x.j.r , 8 w ",
"> 7 t w 7 & 4 [ 5.y : q W Y 4 # r { y.; 4 s.z.p $ 7 e e : 4 w 8 t W W r q &.&.s 4 7 7 4 8 r C e.",
"r & 0 7 e q * W E T , 4 Z o.e + t i.f.q : y.z.1.: 3 W J 4 : 4 8 r r 0 > ; q 7 7 > 4 ; & 8 s.x.c.",
"W > : U R e & r o.E , & d U W & 3 i.f.{ & t <.j.4 3 W J q # > 4 0 > & + X o + 3 w ,.s.r e.c.j.j.",
"t 0 - J R Y : , R r ;   7 r q 3 $ Z h.d.3 0 n w & 3 t ^ t $ : % $ + 4 r t r 8 t s.s.j.w e.c.j.r ",
"W 4 + q o.Y 0 % 4 q w * $ t | W ; 0 r t 4 > } o.0 3 t w 7 $ q w 8 : 0 n Z J r z c.v.v.C s t 4 8 ",
"0 4 % 3 ^ [ F % > e E 0 O t a.a.> 4 t W w - s.h.t & q t q % t } n 4 w W ^ o.w q t r y 8 8 w 8 i ",
"3 8 w : t U E > > R 5.F # w c.j., 4 i.h.t 1 j.h.V $ 8 { ,.- r Z t 3 4 r r r 8 4 5 : - - 3 C z.j.",
"r t t 4 r [ ..q * s E &.; 7 c.d.7 , 9.j.D 3 y.j.^ - r 5.,.; 4 i r & $ % # # < , q d.z.<.r z.x.g.",
"n n W 8 3 7 q q * r &.%.> > t w : - p.c.D - z i w + r &.[ , @ $ 5 q q 4 r W W r s z.x.g.r l.x.g.",
"w t z q , e t W $ r 6.6.> ; j s 6 * p.c.i & r 0.Z $ q 5...0 % 3 r t t q t.t.6.W i x.v.x.t C 9 > ",
"- t u w : t ..[ % 4 t W > : &.8.y % z A r % r j.v.* : e t 8 % r i.w.i.r t.i.{ d 7 u y u w 8 3 % ",
"+ w r q & r 5.,.- % 0 q > : Q ..d + 7 r r : r v.v.> % 4 8 3 $ r { Z W w t V w 0 > ; $ ; 4 w r q ",
"X & ; 4 & w e.6.7 : Z Y 0 ; r | j @ t =.1.> 8 x.v.6 3 n { q + 7 w 4 ; & & % @ 4 q } t t [ j j s ",
"+ 4 w d - 9 a.8.w - n ^ w & q t q + t y.<., 4 d.} 8 : =.i.r + - 4 > r r r q : r U a.A t [ n Y J ",
"- 4 [ { 3 3 e y 4 % r W e & 7 t e + w a.9.7 - Z n w & ^ f.s % 4 w 8 } y.e.n 7 Y 5.h.d.r Y r q 0 ",
"& 4 ^ 5.3 & 7 7 > O w s t ; 8 n Q % > ^ &.4 - i A t % s <.s ; r o.w y.y.i.W 3 t t Z j 7 q 6 4 > ",
"+ > ^ 5.3 : Z ^ w o r s J 4 r e.E & % e q - 3 s.h.} # w d w * q k w =.,.d.F 4 4 : 3 * : % + r t ",
"> 3 &.&.4 1 n ^ r X - 4 4 & r i.6.: + z s q > =.h.r.$ 8 Z Z * > e : 3 : % % % : % r 0.o.4 % e d ",
"7 - 0 q ; % i W r o 3 w r - r h.j.7 + &.,.t , o.c.y.# q j.z.> . 1 8 w 4 % 9 w w - i h.<.> > =.=.",
"6 - w q ; + w t 0 + 7 W ,.3 8 Z p > $ j.6.t : r i w + > w w > . - D d.d : =.s.=.: j z.8.3 3 v.j.",
"> w 5.o., # 4 0 3 + w n o.3 4 q 7 + - =.[ q @ ; : & + & * + > - - =.,.w - =.h.d.> w ,.o.3 - z.z.",
"- e R s % ; t W 7 @ t [ ^ 7 t &.T $ : 7 : + X # & w c A D w D i $ 7 4 > @ t j.j.> % 3 4 * * j.j.",
"@ F U w + 4 t J 7 - W ..d 4 8 : > > 4 0 r w e q 4 n t.s.d.w %.D - s Y r - r j.j.4 4 j D 9 * z.x.",
"& } Z w # 8 W t ; & 8 e 7 * : 4 7 w w 0 ^ y.6.J 9 V i.i.s.w 1.o.: =.a.=.3 3 t t 2 6 9.z.C 1 u u ",
"> =.D 8 & w ^ W # % & > > * : J Y k o.7 t { { ^ q t t t r 6 w w % j a.i.6 - 8 r 5 - <.j.q.3 8 8 ",
"4 ^ j 4 - t n s # 4 : # 4 d 4 r n Z ^ 7 r ^ 0.t 8 5 4 % $ O % $ O d a.y.7 5 e.j.x - 1.h.1.4 t f.",
"* ; 3 - & w r q X + 4 w r w 7 q W A t , & - % $ & 8 r 8 q.q.q.r % 8 ^ t : 3 p.v.1.- &.h.<.> r f.",
"y e w $ > r 3 > : ; 4 y e r w * 3 : 4 8 q r 4 w u q.D u v.v.v.n - - x ^ 4 > y.x.g.- 8 i D 3 9 j.",
"9.%.d + > w 7 6 r 4 , y e 4 3 % 3 3 4 t t.i.e g.v.n.g.u x.v.v.A 3 % o.&.e ; t e.0.% 7 u D 6 4 Y ",
"8.&.w + > 8 i i d 7 : w 7 * $ 5 0.t q u.u.i.r 1.z.v.q.w 1.w.D y > * 9.%.r $ q r u = w x.v.9 : r ",
"<.J 4 w Y Y s n r q : ; O 3 t A t.t 0 | u.i.^ 1.g.A w * * $ - * O + 9.%.s * t d.e.2 8 g.v.z 3 t ",
"w w t <.%.o.W W w * @ 4 8 7 z A Q W q r q 1 * O - 6 w r w - r o.7 * o.9.,.- w d.i.8 1 c.j.x 3 t ",
"A Z r <.8.&.r 4 > 3 7 r d 7 t n q 4 3 0 q w 9 3 8 u Y d.V > ,.j.i $ w w w # w <.i.r > h.d.z - s ",
"h.x.u x ^ r w 4 > r U o.Z w 8 9 8 : : q V i.c.Z D z.j.h.q.3 d.j.Z - 4 q q # q ,.,.w > ^ } t % q ",
"j.h.Z 4 9 - > d o.o.&.W n r - & q W t | a.c.v.=.i j.y.d.n 3 D =.Z : 4 o.E 7 0 W t 4 - w t ,.$ - ",
"j.y.: + w } q q Y R 5.J 3 % 8 } d.d.J V a.a.c.e.r j.{ r 3 O + + $ X , &.&.e : z s.e.5 t s.h.t + ",
",.3 : r ^ a.t 7 s e 7 > 7 4 j h.h.j.n t e.t 4 % + - & 4 8 8 w 4 0 % , U R s - q.c.h.7 q x.h.w.3 ",
"4 % 4 a.a.8.D 7 , 0 8 7 d w =.v.j.Z 8 4 w 8 4 1 ; > : 7 0.s.6.w t 4 > Q E J * D l.a.t 3 e.c.c.r ",
"$ : q &.a.{ t 4 ; 7 ^ d.%.r C g.D w > > 9 w r h.h.8.t t a.a.i.q t 4 & F F F : r l.a.=.1 r h.p.A ",
"r p.w i { 0 ; 7 j U ..6.,.r t q : w j.v.b.w.A h.j.%.d w ,.{ | 4 t e # 3 q J u > p.d.r 3 3 0.r r ",
"y.j.=.8 1 & i Y U &.E 5.{ 4 # 7 t t l.b.b.l.y.a.j.j.t w n q > # 3 e % 4 o.9.o.> 4 n ,.Y : w } 8.",
"z.h.} : 4 > e [ E 5.Q 4 : 4 7 D 1.r c.b.n.l.t e q 8 4 4 9 4 q 8 q r & # T 8.%.0 * n f.5.7 6 <.h.",
"x.e.w : r 0 4 J F e q * * e j.x.j.u q.w.0.C 8 , 4 4 3 4 w 4 j =.| t 4 + y 8.5.y # r f.7.r 3 =.h."
};