/* XPM */
static char *fococlipping_20220218_0456__1___1_1645139200[] = {
/* columns rows colors chars-per-pixel */
"48 48 190 2 ",
"   c None",
".  c #2E1C1E",
"X  c #26191C",
"o  c #311D1F",
"O  c #361E21",
"+  c #391F22",
"@  c #252526",
"#  c #262728",
"$  c #2A2729",
"%  c #272829",
"&  c #2B2B2C",
"*  c #3B2022",
"=  c #33262A",
"-  c #3A272A",
";  c #312B2D",
":  c #38282C",
">  c #352426",
",  c #2F2F31",
"<  c #302F30",
"1  c #333333",
"2  c #3C3535",
"3  c #373739",
"4  c #373939",
"5  c #3A3B3B",
"6  c #471F23",
"7  c #432124",
"8  c #4A2225",
"9  c #46272A",
"0  c #4C262A",
"q  c #4D2A2C",
"w  c #46282B",
"e  c #532326",
"r  c #5C2427",
"t  c #552429",
"y  c #5C2529",
"u  c #53292A",
"i  c #5C282C",
"p  c #582E30",
"a  c #512C30",
"s  c #443334",
"d  c #403738",
"f  c #453B3B",
"g  c #4D393A",
"h  c #553334",
"j  c #5D3033",
"k  c #5D3738",
"l  c #543839",
"z  c #64262A",
"x  c #6A272C",
"c  c #642A2C",
"v  c #6C292C",
"b  c #73292E",
"n  c #7B2B2F",
"m  c #72272A",
"M  c #6F2B30",
"N  c #632E34",
"B  c #742C31",
"V  c #7C2C30",
"C  c #613032",
"Z  c #6D3134",
"A  c #6C393B",
"S  c #733235",
"D  c #7B3336",
"F  c #763538",
"G  c #7B3639",
"H  c #743B3D",
"J  c #7B393D",
"K  c #3F3F41",
"L  c #5B3643",
"P  c #643C41",
"I  c #6E3A43",
"U  c #7F3A42",
"Y  c #3F4040",
"T  c #484647",
"R  c #584546",
"E  c #474159",
"W  c #4E4156",
"Q  c #5F4F52",
"!  c #565759",
"~  c #684345",
"^  c #744246",
"/  c #78474A",
"(  c #724A4D",
")  c #794448",
"_  c #7E4D52",
"`  c #6A5358",
"'  c #7B5255",
"]  c #7B5D5F",
"[  c #434968",
"{  c #405477",
"}  c #624962",
"|  c #785F79",
" . c #696468",
".. c #7B6568",
"X. c #796A6E",
"o. c #76666A",
"O. c #686370",
"+. c #6C6978",
"@. c #776E72",
"#. c #7F6D71",
"$. c #737376",
"%. c #7B767B",
"&. c #842D2F",
"*. c #832D31",
"=. c #8A2E32",
"-. c #912F33",
";. c #833134",
":. c #8D3135",
">. c #833538",
",. c #8C3638",
"<. c #843A3D",
"1. c #8A3933",
"2. c #943134",
"3. c #9B3336",
"4. c #943338",
"5. c #9D3539",
"6. c #953B3D",
"7. c #9B3A3E",
"8. c #A13337",
"9. c #A43439",
"0. c #AB363A",
"q. c #A43A3C",
"w. c #AC393C",
"e. c #B2373B",
"r. c #B4383C",
"t. c #BD393D",
"y. c #B8373C",
"u. c #C23A3E",
"i. c #8A3E41",
"p. c #813D41",
"a. c #933E42",
"s. c #983E40",
"d. c #943F4F",
"f. c #AB3E41",
"g. c #BB3D42",
"h. c #B43E41",
"j. c #C43C41",
"k. c #864245",
"l. c #8F4346",
"z. c #914245",
"x. c #9E4245",
"c. c #924B4E",
"v. c #844F52",
"b. c #8A4F52",
"n. c #9E4F55",
"m. c #895759",
"M. c #855A5E",
"N. c #9C5356",
"B. c #9F575A",
"V. c #915559",
"C. c #A24246",
"Z. c #AC4A4C",
"A. c #A9474A",
"S. c #BE4043",
"D. c #B7474A",
"F. c #A85355",
"G. c #B45B5C",
"H. c #8A5E61",
"J. c #83586A",
"K. c #9A5C61",
"L. c #915F62",
"P. c #846366",
"I. c #8B6B6D",
"U. c #86676A",
"Y. c #9F6064",
"T. c #93686B",
"R. c #886275",
"E. c #847477",
"W. c #887176",
"Q. c #8C797D",
"!. c #867478",
"~. c #A86062",
"^. c #A3696C",
"/. c #C74B50",
"(. c #506585",
"). c #7A7587",
"_. c #647591",
"`. c #807881",
"'. c #8A7E83",
"]. c #937C80",
"[. c #A27E86",
"{. c #898489",
"}. c #978588",
"|. c #9A8788",
" X c #848697",
".X c #9B9095",
"XX c #B68A8A",
"oX c #AC908F",
"OX c #BA9495",
"+X c #AC9CA1",
/* pixels */
"                                                                                                ",
"                                                                    3.0.r.3.                    ",
"                                                              :.z -.-.*.b b b y                 ",
"                                *.                      *.  =.:.n z 6                           ",
"                            2.*.z                       *.  2.=.B ;.                            ",
"                          8.=.e                         i.  n t r z                             ",
"                        3.2.r                           <.x x m x                               ",
"                      2.9.v                     b     H n ;.>.b.                                ",
"                      0.n r   H ` F *.*.z     V v   k.c V :.~.OX                                ",
"                    0.r.3.2.>.' ..P z =.3.0.0.r.0.x.F y V V F.v.                                ",
"                  0.e.2.r.=.P v.p V 9.r.t.8.9.0.4.<.c 2.2.F <.v y                               ",
"                r.0.b =.y.-.Z D 2.g.u.u.3.B B M <.x z 3.0.x.S 4.*.*.2.8.3.=.                    ",
"              0.9.z y 0.y.y.;.&.r.j.e.*.v z t U D z z b D v v q.9.:.n 8.t.t.8.&.                ",
"          :.e.8.r + V r.3.8.0.r.g.e.*.z u d   i.m b z y x x 9.;.c 3.=.z v =.w.e.b               ",
"        3.r.9.z + 8 8.3.x 0.u.u.9.*.r   ! o.c.:.3.r.&.z b S &.n c B 2.b c   *.e.9.x             ",
"        r.0.x * O z e.c z r.t.3.b y     T c.0.y.u.y.2.:.6.c x b *.*.V x x c y V r.*.            ",
"      5.t.V * * * &.3.7 b y.8.n y       x h.g.u.u.t.g.Z.Z C F B *.V 0.:.b x v   0.9.z           ",
"      9.8.8 + + 8 3.v * n 3.3.n     >.F L 4.u.9.0.g.C.:.a.I q B V B V 0.9.b v =.0.e.b           ",
"      e.B + + + i 3.8 * &.*.2.e     6.R.{ p.u.3.y.r.h.D.z.- $ x x u     0.*.x v -.r.n           ",
"    3.8.8 O * + m =.* 7 n x 3.      I | z.r.y.r.j./.Z.D e   C *.V i     9.-.x x v -.3.          ",
"    w.V + + + * &.v O 7 &.t q.A.:.3.9.q.1.2.w.h.Z.p.z y i V *.v b v       8.x v x v -.3.        ",
"    9.r O * * 7 2.u * 7 ;.8 2.w.7.0.0.f.B b 5.;.r r r z z v t 0 b B t     0.b x v x x =.        ",
"  4.3.+ O * + y =.7 * 7 n * :.r.D.r.r.1.z z y y z x x x x x 0 - c         0.V x v v x v V       ",
"  9.V + + O 7 b V + O e b * b w.5.n F Z c y z x x x x x x x i w b v v B   0.*.x x v x x B       ",
"  9.y * O O 8 V x O + t v + i S ^ U.|./ M.Z z c w - : 0 x x v =.-.V B     0.-.x x x x x v x     ",
"  8.8 O + * e *.t > * y v + e U oXXXN.H }.^ z > @ # & # 9 x x u 0 x x t B 9.8.x m v x x x v     ",
"  2.* O + + e *.7 O 6 t z + 8 a.G.^.Q.'..Xp.z     & & # $ x i ; $ 0 x x x 3.0.x V n x v x x     ",
"3.n + + + 6 r =.* O 6 r z O 8 F I.I.W E n.9.z       1 & $ i y   % $ : c 3.g.0.v =.=.z v v v V   ",
"3.x O + + 6 z *.+ O 6 t t O 6 y w  .[ } y.2.m     < , # $ i v *.+ $ p 5.-.8.0.b 3.8.x x v x V   ",
"3.r O + O 7 x V + + 8 e 8 O * e w O.(.J.8.x y *.*.f 3 % ; z x i z :.5.V z -.h.n 0.0.b x v x b   ",
"2.e O O + 8 x v O 8 r e 8 O O 6 a O._.K.x 7 + z S 2 , & = x x y x x e 6 + =.e.=.y.y.n x v v b =.",
"2.8 O O O 8 x c 8 8.*.z 8 t F   L ). Xc.+ o z 2.A T & # 9 z t 6 + + O O + =.0.3.j.y.V x x x x *.",
"2.8 * O o + x y &.t.:.2.B v.T.;.X.).[.D X e =.b u 4 , & t r * O + O + O o 2.r.r.t.t.&.x x x x b ",
"2.7 O O     y u S u.q.x.P.%.o.D T.+XB.y *.G ( ) H ; = q 8 * O O o O O O + 3.t.t.t.r.=.x z x x b ",
":.7 O .       7 s w.u.K.@...~ x N.G.;.*.k.X.@.x.4.i z n e o .         O * 9.t.t.t.r.2.z x x x B ",
"=.7 +           , A t.~.P.' u i 7.&.m c ( ( l.r.F ' B *.N Q             7 0.t.t.t.t.2.x z z x v ",
"=.8 O             4 G K.V.5.:.;.n 3.n c :.h >.=.P.}.x 2.H.E.m.]           y.t.t.t.t.3.x x x z x ",
"&.u o             & 4 P V.t.t.t.y.y.0.,.l 5 C u  .$.8 4.W.!.{.+.          r.t.t.u.g.9.x x x x z ",
"  t .               1 3 g G 7.w.q.,.A 5 1 Y ; # !  .  7.Q.] '...        2.t.t.t.u.u.0.x i z z z ",
"  e                 @ 1 4 3 d 2 f 3 4 5 1 , & # K     C.Q.A #.W.(       8.t.u.t.j.r.2.          ",
"  8                   @ , 1 5 1 Y 3 3 4 $ # # @     n z...u %.$.        0.u.u.t.0.              ",
"  7                     @ @ < , 1 1 # & & @ @               {. .        r.u.t.9.                ",
"                            @ # @ & # @ @                   %.          t.u.9.                  ",
"                                                           .          3.j.e.                    ",
"                                                                      e.r.                      ",
"                                                                      r.                        ",
"                                                                    2.4.                        ",
"                                                                                                "
};