/* XPM */
static char *fococlipping_20220217_231257__1_1645137712[] = {
/* columns rows colors chars-per-pixel */
"48 48 243 2 ",
"   c None",
".  c #050505",
"X  c #0B0505",
"o  c #06040B",
"O  c #0A040B",
"+  c #0C0B0C",
"@  c #090A05",
"#  c #160907",
"$  c #1A130B",
"%  c #0B0413",
"&  c #0D031B",
"*  c #0B0A15",
"=  c #13051B",
"-  c #140C1B",
";  c #160A17",
":  c #131214",
">  c #1B1A1C",
",  c #171519",
"<  c #260B06",
"1  c #38070A",
"2  c #26140B",
"3  c #33190A",
"4  c #330F13",
"5  c #3B2615",
"6  c #2B2512",
"7  c #0D0725",
"8  c #120521",
"9  c #1B042C",
"0  c #1B0A2B",
"q  c #150926",
"w  c #1C1C22",
"e  c #191626",
"r  c #1C0936",
"t  c #1C1837",
"y  c #23152B",
"u  c #261A26",
"i  c #230838",
"p  c #251637",
"a  c #220727",
"s  c #2B2B2D",
"d  c #282526",
"f  c #382726",
"g  c #282637",
"h  c #342739",
"j  c #2E3433",
"k  c #34333B",
"l  c #383638",
"z  c #4B0613",
"x  c #4D0D10",
"c  c #4A2616",
"v  c #562D16",
"b  c #4A3418",
"n  c #543511",
"m  c #673615",
"M  c #673408",
"N  c #4E1126",
"B  c #70132B",
"V  c #443328",
"C  c #4C3433",
"Z  c #633A23",
"A  c #6C2233",
"S  c #76302B",
"D  c #65461A",
"F  c #7A4C1B",
"G  c #68571E",
"H  c #77531F",
"J  c #47443D",
"K  c #5C4932",
"L  c #764A24",
"P  c #6B4D39",
"I  c #755330",
"U  c #70622F",
"Y  c #250644",
"T  c #240B42",
"R  c #2A0C44",
"E  c #2A0849",
"W  c #271546",
"Q  c #321648",
"!  c #330C55",
"~  c #350B59",
"^  c #2D1556",
"/  c #36185A",
"(  c #2E0B51",
")  c #2C2748",
"_  c #3B2C45",
"`  c #3E3D42",
"'  c #383447",
"]  c #383458",
"[  c #312C54",
"{  c #390966",
"}  c #3B1767",
"|  c #3A1974",
" . c #382765",
".. c #3D2F70",
"X. c #400C5A",
"o. c #433C49",
"O. c #453B46",
"+. c #463858",
"@. c #4E2453",
"#. c #7D2848",
"$. c #420667",
"%. c #462976",
"&. c #483775",
"*. c #4B366B",
"=. c #3A4041",
"-. c #424244",
";. c #4B444B",
":. c #49494A",
">. c #494654",
",. c #544B55",
"<. c #58555A",
"1. c #565154",
"2. c #635647",
"3. c #6F494D",
"4. c #696555",
"5. c #736651",
"6. c #474565",
"7. c #514863",
"8. c #585667",
"9. c #484674",
"0. c #534979",
"q. c #55587B",
"w. c #4E556E",
"e. c #675A66",
"r. c #665E70",
"t. c #69676A",
"y. c #6C6573",
"u. c #746675",
"i. c #78777A",
"p. c #76636D",
"a. c #851937",
"s. c #971332",
"d. c #832F29",
"f. c #B93932",
"g. c #88561B",
"h. c #8D4F0C",
"j. c #A46A12",
"k. c #B97B19",
"l. c #AF680B",
"z. c #854D27",
"x. c #885723",
"c. c #865C37",
"v. c #91542E",
"b. c #997625",
"n. c #876538",
"m. c #997439",
"M. c #8F6529",
"N. c #A57428",
"B. c #BA7C29",
"V. c #AA7538",
"C. c #B06E34",
"Z. c #C37C17",
"A. c #C64030",
"S. c #B41B47",
"D. c #BA1E53",
"F. c #AA1945",
"G. c #95334F",
"H. c #AA274D",
"J. c #AA2755",
"K. c #B72859",
"L. c #A73257",
"P. c #B52E53",
"I. c #B83667",
"U. c #AF3065",
"Y. c #C31A4D",
"T. c #C93A68",
"R. c #8B544B",
"E. c #897356",
"W. c #95724D",
"Q. c #A67B46",
"!. c #AF694E",
"~. c #9A4966",
"^. c #AE476A",
"/. c #B44F74",
"(. c #8E766E",
"). c #B1607B",
"_. c #A24A54",
"`. c #C7494D",
"'. c #C87E44",
"]. c #CA5076",
"[. c #B78937",
"{. c #B28635",
"}. c #CC8E1D",
"|. c #C5872A",
" X c #D38B38",
".X c #CB932F",
"XX c #DAA63B",
"oX c #CFAA34",
"OX c #F2B837",
"+X c #B38549",
"@X c #AA845B",
"#X c #B99052",
"$X c #938D6F",
"%X c #A98767",
"&X c #B19570",
"*X c #BCA276",
"=X c #8F8251",
"-X c #CD8241",
";X c #CA9647",
":X c #CD9253",
">X c #D6A94A",
",X c #E7B848",
"<X c #E6AF59",
"1X c #DF9F60",
"2X c #D3AD6F",
"3X c #F2B969",
"4X c #DED278",
"5X c #EBD37A",
"6X c #DFC550",
"7X c #57398A",
"8X c #683A93",
"9X c #58458A",
"0X c #594899",
"qX c #5E5193",
"wX c #5B5784",
"eX c #644C94",
"rX c #64568F",
"tX c #7C7184",
"yX c #6B6998",
"uX c #6F6C8D",
"iX c #6B5DA7",
"pX c #706DAE",
"aX c #857688",
"sX c #817BA8",
"dX c #AF728F",
"fX c #D06995",
"gX c #7083B1",
"hX c #7886C8",
"jX c #8B8299",
"kX c #82818D",
"lX c #B5AA86",
"zX c #878AB2",
"xX c #9BA3BF",
"cX c #D1B888",
"vX c #E5BE9A",
"bX c #D78DA9",
"nX c #E5C883",
"mX c #E3C59A",
"MX c #E6D592",
"NX c #F6E6B8",
"BX c #EFE6AF",
"VX c #E9D3A1",
"CX c #F9ECC0",
/* pixels */
"                                                                ^.                              ",
"                                                            ^.H.D.                              ",
"                                                          P.B N J.                              ",
"                                                      ).d.`.d.z H.bX                            ",
"                                    H.L.I.          ^.a.z ;XU x H.bX            K.L.            ",
"                                    S.S.a.~.      U.G.m +X>XU x P.bX    G.f.`.T.Y.fX            ",
"                                    S.A.'.v A R.  G.A F ,XD 2 x D.L.G.G.S !.A.Y.I.              ",
"                                    H.A.C.K x N G.1 M.>X{.6 . 4 a.d.S I W.v a.I.                ",
"                                    D.s.1 b.F x # Z [.[.< @ X 4 H oX[.U 2 x s.Y.                ",
"                          /.T.F.B B B N < {.}.N.n N.Z.N.M n n F >Xj.b @ # s.].fX                ",
"                              ).A z # ; 3 oX{.D [.h.}.oXXXj.{. XN.3 . O # s.`.].^.L.J.K.L.      ",
"          X $Xt.X < $X5.@         c x.b.h.,XU 2 F h.k.<XBX,X6X4XW.5 2 5 c C. X!.x x a.I.        ",
"          X *X$X< R.%X5.# e.  4.D {.[.k.|.OXG f cX#XN.Q.MX5X4X4XMX&X+X.X.Xx.b 2 N G.~.          ",
"          b &X+Xm 2Xn.3 @ :.d D XX}.V.m.b.m.I %XNXNX%XD +X*XmX5X.XnX@XM Z < 1 A _.              ",
"  + @ # c z.V.'.-X'.F Z W.@XV 3 G U 4.-.* o V (.BX$X  3.A !.+X[.}.B.Q.5.# N ~.dX                ",
"  $ 2.E.W.;X:X<X<X1Xv.x.V.b # g q.e g 6.y.y 4 R.NX*X!._.G.    l.OXj.:XcX< 4 C l +               ",
"    :.V P v.:X<X<X3X1X:X@X(.' [ hXiX.. .) % P *XvXmXmXvXVXNX:Xl.OXj.+X%X$ , j                   ",
"          f K D F @Xc.b u p  .9XiX..7X8X( 9 ; u o.K E.&XlX*Xc.F }.{.H n f                       ",
"              # # f O.C 0 r +.*.T Y Y ~ { ! Y Q w.=.6.] t +.+.O.n ;X[.n.                        ",
"                                  o.,.w.r Y i r r ] 9.9XeX7XpXgXw.P E.                          ",
"                                      d @ u.O.% 7 * q W %.} 0XhXgXu l                           ",
"                                    ` - s t.k o % _ 7.7.q Y 7XiX .9 +                           ",
"                                  u p +.kXs o * s aXpXuX) i ~ } T g                             ",
"                8.>.=.) s ` <.>.y t 7 h kXw k 8.&.} 7XqXeX .( W _                               ",
"          j w.8.<.  yXwX  ] Q i 0 & _ p.aXa +.aXX.$.{ { { Y ]                                   ",
"          e uXxXzXzXjXy.>.Q ~ Y ; Z c.W.c.h.z.z.v.z.A ! i % w                                   ",
"        j y.  zXpX..o.;.u.h Q W h I {.}.l. XB.k.:Xx.c = & t p g g 7 & % 8 r.                    ",
"        w gX0.u.aXN 3.    t.h ' zXaXR.v. XZ. X|.L 4 y [ ..qXwXq.q.9.&.%.! W p i 9 9 _           ",
"        >     O.# N #.    , k w.q.W i N m B.g.c y ] 9.rXqX^ W ' ' 6.0.9X7X9X%.{ { $.E t         ",
"        <.-.C I W.Z 2.j ` 8.w.] r a h l X 5 2 O = [ ) r t 7 ] y.u.;.` +.] 6.9X9X{ $.! Q O.      ",
"          < W.cXnXC.S b > k g q , , :.1.+ . . . - 0 Y / rXW p _ p.p.u.e.- 8.8.h h ! ( i 9 e.    ",
"          3 (.@Xn.@XP V   + :.      -.* X X + h <.y Y %.pX7XQ p <.p.r.,.d         h a h y u ,   ",
"            V 2 # 2                 l . . . s ,.p.O.i ! | pX8XT q =.:.k                 , e <.  ",
"                                  + @ . . . l ,.o.t.k 9 ~ 0X0X&.7 =.                          : ",
"                                  + . . . . :.  ;.C u ; r W qXpXq l                             ",
"                                  w . . @ :           <., q &.yX) * ,                           ",
"                                w + . o > i.              g e ..pXt :.                          ",
"                                o o & 8 -                 : . t yXt + ,                         ",
"                              :.@ o i i =                   l * t 7 7 g >.                      ",
"                            j @ @ & R R &                   J . % 9 ..9.7                       ",
"                          s w o 8 T i - :                     , & Y 9XyXt i.                    ",
"                          y O = R ! q l                       i.q r } ..yX' s                   ",
"                        0 ^ Y i i i q u                         O 9 } 9XgX9.W g                 ",
"                      -.% r Y Y ^ Y = O                         o.h *.qX0XeX&.T q               ",
"                : l t.>.O o O ; t q ; .                           p 0 +.iX@.+.u.e t.            ",
"            + l ;.:.t.i.t., , l u., ;.                            % +.tX>.,.p.aX<.:.O.          ",
"            . + u > > d s + 1.  s *                                 ,.-.;.,.u.i.  1.l :         ",
"                                                                        e , k -.-.O.l +         "
};