/* XPM */
static char *fococlipping_20220217_23835__1_1645137911[] = {
/* columns rows colors chars-per-pixel */
"48 48 243 2 ",
"   c None",
".  c #0B0505",
"X  c #06040A",
"o  c #0B050B",
"O  c #070708",
"+  c #160809",
"@  c #0A0514",
"#  c #13061B",
"$  c #140918",
"%  c #141214",
"&  c #14131C",
"*  c #1A191C",
"=  c #191618",
"-  c #17130C",
";  c #270607",
":  c #361409",
">  c #241A1C",
",  c #361512",
"<  c #2E0E0D",
"1  c #1D211F",
"2  c #342114",
"3  c #352815",
"4  c #130523",
"5  c #1B042B",
"6  c #1C0B2A",
"7  c #160924",
"8  c #191728",
"9  c #1E0A32",
"0  c #1F0535",
"q  c #1B1F3A",
"w  c #220A28",
"e  c #251C29",
"r  c #210A34",
"t  c #240B3D",
"y  c #260638",
"u  c #2C1B32",
"i  c #28183A",
"p  c #38092B",
"a  c #1A2125",
"s  c #29242E",
"d  c #2B292C",
"f  c #262526",
"g  c #362828",
"h  c #2B2733",
"j  c #332739",
"k  c #3B343C",
"l  c #383738",
"z  c #343335",
"x  c #590516",
"c  c #5C1415",
"v  c #480D12",
"b  c #68121B",
"n  c #51280D",
"m  c #472A1A",
"M  c #532C12",
"N  c #593618",
"B  c #4D2E0C",
"V  c #663716",
"C  c #6F3016",
"Z  c #480F2C",
"A  c #7A0B24",
"S  c #70162C",
"D  c #463828",
"F  c #573523",
"G  c #51373D",
"H  c #472F35",
"J  c #772D32",
"K  c #3D423A",
"L  c #6A4418",
"P  c #7A441C",
"I  c #7D460C",
"U  c #4B413A",
"Y  c #4D402E",
"T  c #774726",
"R  c #664437",
"E  c #76542E",
"W  c #2B0B43",
"Q  c #2C074D",
"!  c #2C0B4C",
"~  c #270844",
"^  c #320C4D",
"/  c #310B43",
"(  c #2B1744",
")  c #321946",
"_  c #340B54",
"`  c #350A58",
"'  c #35165A",
"]  c #290D57",
"[  c #392644",
"{  c #3A3844",
"}  c #343356",
"|  c #2F2E4A",
" . c #390A65",
".. c #3C1167",
"X. c #3F2D6B",
"o. c #481552",
"O. c #433C47",
"+. c #54384E",
"@. c #463251",
"#. c #742E44",
"$. c #441C71",
"%. c #462779",
"&. c #4A397D",
"*. c #533877",
"=. c #633F7F",
"-. c #3F4354",
";. c #3C424B",
":. c #3E4364",
">. c #444343",
",. c #4A4544",
"<. c #4E4A4D",
"1. c #4A454A",
"2. c #534A4A",
"3. c #4D4B54",
"4. c #544C57",
"5. c #4D5459",
"6. c #595459",
"7. c #58585B",
"8. c #625947",
"9. c #635D58",
"0. c #6E494F",
"q. c #756554",
"w. c #595763",
"e. c #524D74",
"r. c #665B67",
"t. c #675473",
"y. c #5A636C",
"u. c #666367",
"i. c #736A65",
"p. c #746D77",
"a. c #757577",
"s. c #787478",
"d. c #6F707A",
"f. c #99173B",
"g. c #8F192C",
"h. c #B7142C",
"j. c #85342D",
"k. c #B52B36",
"l. c #8A2E15",
"z. c #8A4A1C",
"x. c #915117",
"c. c #BB421D",
"v. c #AD4B1E",
"b. c #9C671E",
"n. c #B06F13",
"m. c #8A5928",
"M. c #915A2E",
"N. c #B44E29",
"B. c #87652B",
"V. c #9B6629",
"C. c #886135",
"Z. c #966839",
"A. c #A36828",
"S. c #AC7725",
"D. c #B7792A",
"F. c #A77735",
"G. c #B87A3A",
"H. c #A26E33",
"J. c #C07E17",
"K. c #C34D22",
"L. c #C57824",
"P. c #CD712E",
"I. c #8D1445",
"U. c #A71E46",
"Y. c #953050",
"T. c #AE3749",
"R. c #A62656",
"E. c #B42454",
"W. c #A93554",
"Q. c #A73662",
"!. c #B43263",
"~. c #AC4C4F",
"^. c #816647",
"/. c #8A745A",
"(. c #8F7752",
"). c #AB764B",
"_. c #994766",
"`. c #AC516C",
"'. c #8F6976",
"]. c #A95969",
"[. c #D56553",
"{. c #C17245",
"}. c #BC8014",
"|. c #B78E34",
" X c #C88A2A",
".X c #C88835",
"XX c #D29132",
"oX c #DAB03B",
"OX c #E5B536",
"+X c #ECB02E",
"@X c #EFC238",
"#X c #B68754",
"$X c #B18B4B",
"%X c #B2A15F",
"&X c #B29070",
"*X c #9F8C6A",
"=X c #C1864B",
"-X c #C69A56",
";X c #EAAD46",
":X c #E6B549",
">X c #EBBB5A",
",X c #D49274",
"<X c #DDAD7B",
"1X c #CEAE73",
"2X c #D8AC4B",
"3X c #E8CA54",
"4X c #F1CA5F",
"5X c #E7CD70",
"6X c #503E87",
"7X c #594785",
"8X c #5A5988",
"9X c #594A93",
"0X c #685295",
"qX c #6C6B9A",
"wX c #727088",
"eX c #7270AA",
"rX c #867983",
"tX c #86718F",
"yX c #C55682",
"uX c #CD6F8E",
"iX c #7F8387",
"pX c #7580AF",
"aX c #878488",
"sX c #978B89",
"dX c #969498",
"fX c #968699",
"gX c #A29681",
"hX c #B8A283",
"jX c #9C99A1",
"kX c #A39FA4",
"lX c #A283AE",
"zX c #B0AFB4",
"xX c #C7B995",
"cX c #D7B88B",
"vX c #E1A09D",
"bX c #EDCD89",
"nX c #D9C9A0",
"mX c #E9D3AA",
"MX c #F4E3B0",
"NX c #F2E384",
"BX c #B8B8C1",
"VX c #E8B4D2",
"CX c #F7E4C0",
/* pixels */
"                                                              bX>XOX+X@X>X3X                    ",
"                                                              :XJ.c.k.K.N.XX5X                  ",
"                                                              :XK.k.k.k.h.P.4X                  ",
"                                                              ;Xc.g.b A g.P.4X                  ",
"                                                              OXv.x ; ; J XX3X                  ",
"                                                              ;Xv.g.Z ; C  X3X                  ",
"                                                              $X{.J ; c l. X:X                  ",
"                                                              M.<X*XN P.L.XXoX                  ",
"                                  R.yX                        Z.).<XcX=X=XF.C.                  ",
"                                  E.I.j.                      R z.H.-X5X1X&X                    ",
"                        E.!.      !.b , #._.        Q.E.    { y.,.F z.V.m.                      ",
"                        E.b b _.vX!.x E #Xv J `.`.Y.x f.    8 eXeXe.w , sX                      ",
"                        T.~.F < S U.x F |.B.: C D.D.C c '.rXw t.&.%.r #                         ",
"                        T.j.Z.E < Z ; m b.|.B B.+X@X|.B J Q.I.I.Z y i #                         ",
"                R.`.  VXQ.x V b.b.L 2 C z.V B.|.1XNX3X|.l.c A I.Z Q W @                         ",
"                R.f._.uXT.x M n.@X@XXXA.P B B.B 3 (.bX5X$Xx.j.p W Q ) O.                        ",
"                  _.A b {.D.b.n.+Xn.P N m /.hX/.Y n A.;XoXD.N 2 H m g                           ",
"                    Y.v v x.n.J. XI N B Z 2.xXnXmX,Xx.x.A.G.).|.F.$X%X                          ",
"                      `.S T -X1XP : U #._.  ).cXmX&X&XV.M ; y ^ w 2.                            ",
"                      ~.N.&XcX-XL + z 8.MXvXMXmX&X  MXcXR o w ^ 7 %                             ",
"                _.`.k.v.G.m.T N : D F Z.<XMXMX`.f.T.nX#XM 5 _ t j                               ",
"                        B.F U D - 9.3 : T $XcX,X[.[.).L , y ! 4 r.                              ",
"                                  7.l >.9.m C.Z.A.).*Xg # 5 i e                                 ",
"                                  h p.r.& X + + ; Z   } 5 @ 8                                   ",
"                            u @.Q ` tX6.X . X @ | wX0X$.r e l                                   ",
"              2.a.U 5.u.{ 6 w ^  . .@.2.,.X X w 0XtXo._ i s                                     ",
"            g i.9.8.8.2.t _ y 5 t } % { d.k = G 0.+.i 5 1.                                      ",
"        g l 3 ^.xXgX&XxXi.j 4 q e.e.f + g (.L A.G.J < G                                         ",
"    3.a.f D /.^.hXG 2 ^.zXl -.wXwX8 m L x. XXX XS.T + z w.                                      ",
"O l u.f + - D q.3 + D q.3 5.;.8 8 + B V. X}.}. XF.N G 5.{ @ @ u.                                ",
"  O   X O = g U 4.j . $ 8 # h g O @ + : L D.J.N.E 4.5.a 8 { l = % 7 6 9 r r r r 9 9 @.k         ",
"                { [ ! ~ u +.r.u.1.& 9 6 + m Z o.7XqXq { >.H l O.>.j u j [ ( ( ( j w 5 0 r s     ",
"              8 i Q ^ { r.rXrXp.r.w ! y X O # Q  .%.qX| w.aXp.<.k l <.s.aXdXkXkXkXj f j 8 o *   ",
"              @ w @.4.,.sXtXr.O.l $ W _ 5 o @ w Q %.eXe.-.y.zXzXjXwX4.% l 7.s.aXu.7.            ",
"              %       a dX4.3.    @ ^  .^ # 1.s 5 ] 6XeX:.a a.dXzXBXdX% 7.  5.f o               ",
"                      % s         # Q ..^ 4 O.z e 0 ' 0X7Xh * <.a.iXa.f                         ",
"                                  6 Q _ W 7 4.,.f $ y _ 0X8X8                                   ",
"                                  i ! W 4 %       7.4 Q $.6X8X|                                 ",
"                                6 ^ ^ 6 X O         h ) ` %.0XX.w.                              ",
"                                4 _ _ 6 a K           u ~ ` $.eX} h                             ",
"                                5 ` ` y j               @.y  .6X8Xy.;.                          ",
"                              7.$ ` $.y >                 j Q ] 9XeX8Xa                         ",
"                            O.# r Q ` 9 o                 p.4 ~ ] 9XqX8 O.                      ",
"                          h j ~ ] _ y # X                   O 9 6XeXeX9X) u                     ",
"                      u.3.= . # 5 ~ 9 % .                   h 6 ! *.7Xo.e.i u                   ",
"                  ;.k <.aXu.f . > 7.a h                       & 3.8Xt.@.tXr.,.,.                ",
"                X * h d d O.> 1 u.,.= a                         6.<.1.r.aXp.7.U d               ",
"                                                                  >.= * 8 * 1 % X               "
};