/* XPM */
static char *fococlipping_20220217_23835__1_1645135759[] = {
/* columns rows colors chars-per-pixel */
"48 48 242 2 ",
"   c None",
".  c #0D0C0F",
"X  c #130D0D",
"o  c #0E0D17",
"O  c #120C13",
"+  c #170C19",
"@  c #111113",
"#  c #1A131C",
"$  c #1B1B1C",
"%  c #171618",
"&  c #13120C",
"*  c #25110A",
"=  c #260C13",
"-  c #310C11",
";  c #251516",
":  c #381A15",
">  c #30110E",
",  c #37251A",
"<  c #3C351C",
"1  c #1A0E25",
"2  c #1D0C2C",
"3  c #150A21",
"4  c #1C1323",
"5  c #1D1C22",
"6  c #1C192C",
"7  c #1A1B31",
"8  c #1E0A31",
"9  c #230B2D",
"0  c #231D24",
"q  c #23142A",
"w  c #271928",
"e  c #240D31",
"r  c #280C39",
"t  c #241334",
"y  c #2A123C",
"u  c #291937",
"i  c #371234",
"p  c #1B232B",
"a  c #24232D",
"s  c #292727",
"d  c #362B2A",
"f  c #33312F",
"g  c #2D2531",
"h  c #2D2B31",
"j  c #25253A",
"k  c #322E34",
"l  c #34293B",
"z  c #3B3B3C",
"x  c #3C3637",
"c  c #2F343F",
"v  c #560C18",
"b  c #46171A",
"n  c #591617",
"m  c #68131F",
"M  c #462918",
"N  c #58371A",
"B  c #4F2D19",
"V  c #65351A",
"C  c #732F1D",
"Z  c #4E1328",
"A  c #611628",
"S  c #791329",
"D  c #7B1E35",
"F  c #463727",
"G  c #573725",
"H  c #472833",
"J  c #483A39",
"K  c #522C39",
"L  c #752829",
"P  c #76363B",
"I  c #712C2B",
"U  c #3E433D",
"Y  c #72461A",
"T  c #4D4239",
"R  c #684523",
"E  c #784828",
"W  c #664639",
"Q  c #785739",
"!  c #7E5C28",
"~  c #7F6030",
"^  c #2B0E47",
"/  c #2C1443",
"(  c #2E114C",
")  c #2D1A42",
"_  c #33134D",
"`  c #331847",
"'  c #350F56",
"]  c #2D1557",
"[  c #351253",
"{  c #391459",
"}  c #361659",
"|  c #300D4F",
" . c #332443",
".. c #372649",
"X. c #3D3443",
"o. c #373C47",
"O. c #383557",
"+. c #322D4E",
"@. c #3C1365",
"#. c #390E67",
"$. c #43195C",
"%. c #4D1B50",
"&. c #433A48",
"*. c #543948",
"=. c #4B3953",
"-. c #462D54",
";. c #733246",
":. c #472676",
">. c #4B3274",
",. c #3E434C",
"<. c #444243",
"1. c #464349",
"2. c #4E4A4B",
"3. c #4A4646",
"4. c #53484E",
"5. c #4A4853",
"6. c #554D58",
"7. c #595459",
"8. c #57575A",
"9. c #515453",
"0. c #625949",
"q. c #635D59",
"w. c #6E4A50",
"e. c #776753",
"r. c #464A69",
"t. c #595763",
"y. c #535877",
"u. c #524676",
"i. c #665B67",
"p. c #624578",
"a. c #685873",
"s. c #5A636C",
"d. c #646365",
"f. c #6A6369",
"g. c #726965",
"h. c #746D76",
"j. c #757476",
"k. c #696A7C",
"l. c #961B3B",
"z. c #8D2A31",
"x. c #B82637",
"c. c #9C2322",
"v. c #95561A",
"b. c #A9651B",
"n. c #BA7A19",
"m. c #AF7B18",
"M. c #894C22",
"N. c #875A36",
"B. c #92592A",
"V. c #B84426",
"C. c #B0532C",
"Z. c #9A6626",
"A. c #876138",
"S. c #9B6733",
"D. c #8D692F",
"F. c #A66B29",
"G. c #B97925",
"H. c #A06932",
"J. c #A67638",
"K. c #B77738",
"L. c #AA7A2C",
"P. c #C24E27",
"I. c #CC7531",
"U. c #8D1A42",
"Y. c #932F50",
"T. c #A72B55",
"R. c #B42756",
"E. c #AC354B",
"W. c #AC3763",
"Q. c #A84953",
"!. c #89735B",
"~. c #8F704F",
"^. c #AD7447",
"/. c #964663",
"(. c #9A516E",
"). c #AB526C",
"_. c #84767D",
"`. c #9A6271",
"'. c #A85A68",
"]. c #CD6950",
"[. c #C4557F",
"{. c #B88439",
"}. c #BE9A38",
"|. c #AA8537",
" X c #C6892C",
".X c #CA8B36",
"XX c #D0962C",
"oX c #D9AF3D",
"OX c #E4B439",
"+X c #F0B734",
"@X c #F1C539",
"#X c #BB894E",
"$X c #B58655",
"%X c #A7884B",
"&X c #B0A05F",
"*X c #AF8F72",
"=X c #9E8B6A",
"-X c #C7944F",
";X c #EBAC48",
":X c #E3B948",
">X c #EABA59",
",X c #CE9671",
"<X c #D4B67C",
"1X c #D2AC73",
"2X c #E4BE64",
"3X c #D7AB4C",
"4X c #E8C955",
"5X c #F1C85E",
"6X c #E8D275",
"7X c #584685",
"8X c #5D5A8A",
"9X c #594B92",
"0X c #624E95",
"qX c #6E5793",
"wX c #6C6B99",
"eX c #777488",
"rX c #767AAF",
"tX c #706FA9",
"yX c #847984",
"uX c #85708E",
"iX c #C35882",
"pX c #CC6F8D",
"aX c #7E8286",
"sX c #888488",
"dX c #99969A",
"fX c #94898F",
"gX c #B39F82",
"hX c #BBA381",
"jX c #9894A0",
"kX c #A29EA3",
"lX c #A181AD",
"zX c #AFAEB3",
"xX c #C6B995",
"cX c #D2B996",
"vX c #DF9E9C",
"bX c #D6D09F",
"nX c #EDCC88",
"mX c #F2E283",
"MX c #E9D2A9",
"NX c #F5E2B4",
"BX c #B7B7C0",
"VX c #E7B3D0",
/* pixels */
"                    4X4X+XOXOX>XnX                                                              ",
"                  6XoXx.P.V.V.n.;X                                                              ",
"                  5XI.x.x.x.x.P.;X                                                              ",
"                  5X].c.L m z.C.;X                                                              ",
"                  4X.XC - = A C.;X                                                              ",
"                  4X.XC - b z.V.;X                                                              ",
"                  :X Xc.v - P ^.#X                                                              ",
"                  oXXXI.K.N =X<XN.                                                              ",
"                  A.H.-X-X<X1X].S.                        iXT.                                  ",
"                    =X,XnX-XH.E W                       ;.l.R.                                  ",
"                      A.H.M.J =.s.O.    R./.        /.P - A W.      W.R.                        ",
"                      =Xw w u.aXrX7     l.m Y.).).;.b $XN.v W.vX/.A m E.                        ",
"                        2 / :.u.u.w _.`.B V G.C.C : D.|.I Z T.S : G Q.E.                        ",
"                        + ) ^ Z U.U.W.P M }.@XOXD.M }.b.M ; b > Q N.P E.                        ",
"                        + ^ ( Z U.L n C |.4X6X1X|.Z.V M.V < R Z.Z.N v T.VX  iXT.                ",
"                        &...( / Z z.M.#XnX6X%X< F ! N E F.XXOX+XG.V n E.pX/.l.T.                ",
"                          d H K , G L.oX;XH.B G !.gX!.G B M.m.OXn.b.K.^.L S Q.                  ",
"                          &X%XJ.|.^.|.L.v.M.,XMXbXxX4.Z B V Y .Xn.b.M.b b Y.                    ",
"                            2.w %.i = N B.$XhXMXxX^.  (.;.J : E 1X-XE D ).                      ",
"                            % 6 | 9 + W vXNX  *XbXMXcXMX0.f * Y -X<X*XC.Q.                      ",
"                               ./ [ 9 B ^.MXE.l.'.NXNX1X~.G F : G E D.{.C.x.)./.                ",
"                              i.2 _ 9 : W ^.].].,XnX#XE b , 0.$ T T F A.                        ",
"                                w j e + d =X^.H.H.N.M i.1.z q.                                  ",
"                                  6 3 t =.  l = ; = & p t.h.k                                   ",
"                                  z h r :.qXeX+.3 O X . 7.uX{ _ =.g                             ",
"                                    g ` %.$.uXp.e o . 3.4.-.#.@._ e 0 X.a.7.U j.2.              ",
"                                      4.9 ^ *.w.*.; ,.h.J 4 O./ e y ( y 4.q.0.8.g.x             ",
"                                        &.- E L.S.V !.F & s r.y.j 2  .g.xX*X*XxXe., x f         ",
"                                      8.z * E F. XXX}.v.R M 6 aXeX,.o.xX~.< T hXA.!.J s j.9.    ",
"                                d.+ % o.r.J R J..Xn.n. XZ.N + 7 p o.8.g e.d * d e.F * % s d.o.X ",
"        X.-.t t e t y t t t 4 # 5 X.o.a a 8.4.Q F.I.L.Y : + o % d g # 6 + X x 6.T d $ & .   @   ",
"    g u y e q l  . . . . .g x 1.&.x J 1.o.u wXp.%.H : = q 7 4 2.f.a.4.u / ( ..&.                ",
"  $ O a l g k kXkXkXdXsXj.5.z X.9.h.sXt.+.wX>.@.( 1 . O y / w i.h._.yXi.X._ ( ) q               ",
"            8.f.sXj.8.z ; 6.eXdXzXzXt.,.y.rX:.[ 8 o O e [ ( 4 x X.f.uXfX2.6.-.w #               ",
"              @ s 9.  8.$ dXzXzXdXj.7 r.rX>.@.e g 1.1 _ #.[ +     5.7.dXs       $               ",
"                        h j.sXj.2.5  .u.0X} 7 w x 3.1 _ @.( 1         h %                       ",
"                                  7 8X0X} r # d 3.6.4 / } ( q                                   ",
"                                o.8X7X:.( 6 8.      $ 1 / _ )                                   ",
"                              t.O.qX:.' ` k         @ O t [ ` t                                 ",
"                            o.O.tX:.@./ u           U s 2 [ [ 2                                 ",
"                          ,.y.8X>.@.r &.              x r @.} 2                                 ",
"                        j k.tX9X@.[ ..                w r #.{ 4 8.                              ",
"                      &.7 wX9X] ^ 1 j.                O t { | r 4 &.                            ",
"                    l ) 7XtXtX>.t o                   X # r ' } / l k                           ",
"                  g ) p.} 7X>.} 2 h                   . $ 7 / 8 + X $ 6.d.                      ",
"                3.2.i.yX5.y.h.6.5                       h s t.0 X d d.yX2.z 1.                  ",
"              h <.8.j.eXi.3.4.7.                        s $ 3.d.s s &.h h k a .                 ",
"              X $ s 5 a 5 $ 1.                                                                  "
};