/* XPM */
static char *de9453f190224a57dc22cb8f8117071ea0gfvtr56mpj8CbO[] = {
/* columns rows colors chars-per-pixel */
"48 48 238 2 ",
"   c #06120E",
".  c #081914",
"X  c #1F1C1C",
"o  c #151418",
"O  c #0E0C12",
"+  c #261E1D",
"@  c #07251C",
"#  c #16221D",
"$  c #28231C",
"%  c #372A1E",
"&  c #1B1C24",
"*  c #0A2C22",
"=  c #1B2625",
"-  c #11382D",
";  c #272726",
":  c #382D23",
">  c #23352D",
",  c #283737",
"<  c #313234",
"1  c #49342A",
"2  c #473629",
"3  c #4F3E33",
"4  c #663E29",
"5  c #59370F",
"6  c #114B38",
"7  c #264537",
"8  c #5A4016",
"9  c #6A4A19",
"0  c #7A551C",
"q  c #76531C",
"w  c #734C1B",
"e  c #58442A",
"r  c #4A4536",
"t  c #574739",
"y  c #65492D",
"u  c #66472C",
"i  c #745529",
"p  c #634B33",
"a  c #6A553A",
"s  c #76583A",
"d  c #724E2B",
"f  c #343946",
"g  c #2F3469",
"h  c #185744",
"j  c #125643",
"k  c #3A464B",
"l  c #2E5049",
"z  c #137053",
"x  c #355A5D",
"c  c #494849",
"v  c #594946",
"b  c #5A5347",
"n  c #464D54",
"m  c #46565A",
"M  c #555855",
"N  c #5A4C56",
"B  c #655745",
"V  c #745C45",
"C  c #685551",
"Z  c #695856",
"A  c #705C55",
"S  c #664E46",
"D  c #5B6151",
"F  c #786247",
"G  c #766759",
"H  c #68655A",
"J  c #4C5A62",
"K  c #494A79",
"L  c #514E74",
"P  c #5B5779",
"I  c #565868",
"U  c #675E64",
"Y  c #55656B",
"T  c #5B6D74",
"R  c #5E7379",
"E  c #4F666A",
"W  c #656A68",
"Q  c #756766",
"!  c #64747A",
"~  c #767B77",
"^  c #6B716C",
"/  c #845A1E",
"(  c #845E23",
")  c #815B2F",
"_  c #895823",
"`  c #835D39",
"'  c #915E22",
"]  c #8C6323",
"[  c #8D6526",
"{  c #946324",
"}  c #996926",
"|  c #9E712B",
" . c #866335",
".. c #976B38",
"X. c #947038",
"o. c #B56A26",
"O. c #A9762A",
"+. c #B7782A",
"@. c #A87939",
"#. c #A76C2E",
"$. c #C87727",
"%. c #C9771F",
"&. c #836443",
"*. c #8A6B49",
"=. c #926E43",
"-. c #916F49",
";. c #95734A",
":. c #866D54",
">. c #9A7652",
",. c #9D7951",
"<. c #977758",
"1. c #8F7448",
"2. c #A27E54",
"3. c #A4735E",
"4. c #A87546",
"5. c #8B7A6C",
"6. c #867567",
"7. c #917F71",
"8. c #8F7967",
"9. c #A47A61",
"0. c #178363",
"q. c #14805F",
"w. c #7C827C",
"e. c #B6822D",
"r. c #BB852E",
"t. c #B78737",
"y. c #AB8232",
"u. c #E6891E",
"i. c #C7882C",
"p. c #C68D33",
"a. c #C88E35",
"s. c #CC9333",
"d. c #CE9936",
"f. c #CE9C39",
"g. c #C89239",
"h. c #D09A36",
"j. c #D38A30",
"k. c #CEA13D",
"l. c #D0A23D",
"z. c #E4891F",
"x. c #BC8F4C",
"c. c #B68844",
"v. c #BD914D",
"b. c #AB8559",
"n. c #B58A5E",
"m. c #BD9753",
"M. c #AC8042",
"N. c #958274",
"B. c #9D8A7B",
"V. c #988678",
"C. c #8F8574",
"Z. c #A78567",
"A. c #B58A6D",
"S. c #BB9363",
"D. c #A18D7E",
"F. c #A0867B",
"G. c #BC9475",
"H. c #BD8E78",
"J. c #9F8159",
"K. c #CD9945",
"L. c #C99846",
"P. c #D18F5C",
"I. c #C79876",
"U. c #D29C73",
"Y. c #D39564",
"T. c #D7A775",
"R. c #D1A555",
"E. c #3C458C",
"W. c #444D91",
"Q. c #4B5394",
"!. c #4C5497",
"~. c #5B5E92",
"^. c #555C96",
"/. c #4F5388",
"(. c #5D6194",
"). c #657B84",
"_. c #697D86",
"`. c #656796",
"'. c #727F83",
"]. c #5962A5",
"[. c #5F68A8",
"{. c #646CAB",
"}. c #6168A5",
"|. c #6970AD",
" X c #6C838A",
".X c #72868D",
"XX c #768689",
"oX c #788C93",
"OX c #7D939B",
"+X c #7E9196",
"@X c #75A0A0",
"#X c #82969B",
"$X c #869392",
"%X c #A69181",
"&X c #AB9585",
"*X c #AF9988",
"=X c #B49D8C",
"-X c #A38F80",
";X c #BAA28F",
":X c #849BA3",
">X c #899FA6",
",X c #8186BA",
"<X c #8CA4AB",
"1X c #89A1A9",
"2X c #94A7AA",
"3X c #8DA8B1",
"4X c #93ABB3",
"5X c #99AFB6",
"6X c #9BB5BD",
"7X c #97B1B9",
"8X c #A1B7BC",
"9X c #CD9D80",
"0X c #DAAA8C",
"qX c #C4AC99",
"wX c #DDB191",
"eX c #CBB398",
"rX c #DABFAA",
"tX c #D3B9A5",
"yX c #C9B3A2",
"uX c #E0B392",
"iX c #DCC0AB",
"pX c #E3C6B0",
"aX c #E6CAB4",
"sX c #E9CCB8",
"dX c #E0C3AE",
"fX c #9CB8C2",
"gX c #A3BDC6",
"hX c #AAAED2",
"jX c #979CC6",
"kX c #A4C2CC",
"lX c #ABC3CA",
"zX c #ABCAD4",
"xX c #B4D2DC",
"cX c #B1CBD1",
"vX c #B9D9E4",
"bX c #B0C9EA",
"nX c #C5E0E7",
"mX c #C1D8E5",
/* pixels */
"jX~.P P P L K K K K /.K /.K L L L L L L L L P T /.P T /.P L L L L L L L L L P P P L L L L L ~.OX",
"[.Z 4.,.8.6.:.6.J.C.Z.Z.G 1.,.c.v.v.x.v.v.m.m.m.m.L.m.v.L.x.x.x.v.v.x.x.v.x.v.v.v.v.v.v.v.t.*.Q.",
"].C K.L.c.L.L.L.R.L.k.L.t.c.L.g.K.L.x.t.g.c.L.l.L.K.R.k.t.L.L.K.f.K.L.K.K.K.K.K.R.T.T.T.L.t.1.E.",
"[.Z K.@.8 } } [ ] ] t.r.9 ] ( 9 O.} O.0 0 q / ] i { ] | w / ( ] / ] } } } ( } K.eXeXeXS.f.y.1.W.",
"|.A K.O.u ] q 0 ( 0 e.e.q } i 9 O.] e./ / ] 9 0 i } q } w ] q 8 8 9 q i ] q i L.m.;XyX8.t.y.1.Q.",
"{.A K.t.+.r.e.r.r.y.r.r.y.e.r.e.e.e.i.r.r.r.r.e.r.r.e.t.O.r.e.y.t.+.+.r.r.r.r.p.m.X.<.m.r.y.1.W.",
"|.A g.e.e.r.e.e.e.e.t.r.r.e.+.r.e.e.e.e.+.o.+.+.o.O.$.o.+.o...@.o.#.O.$.O.+.$.o.e.O.O.e.e.r.;.Q.",
"{.G f.s.s.t.M.J.J.b.c.x.c.M.t.p.s.s.i.s.u.%.o.u.%.$.u.o.$.u.o.$.u.o.$.u.o.%.%.o.z.z.o.i.d.h.;.E.",
"{.G f.s.a.V v b M b S v v 3 v A F  .F &.` s s ` u u i 4 d d u ` ` s ` ` S ` ` 4 d d ) a.f.j.&.E.",
"].Z d.s.p.s ; - - - * o @ = '.kXgXgXgX6XgX6XfXgX>XT m - * # R 4XfXkXgXgXgXgX6XXXc ; u a.s.4.N W.",
"].Z d.p.d.) = h -       . , 3X1X:X#XgXcXgX8XlX2X2XfXzX7X)., > > x lXvXkX:X:XfXbXxXI 4 a.g.=.N !.",
"}.C s.s.l.s $ @ * @ .   = , l R oXb Q >X4X2X1X.X<XW 6.2XvXgX_.h x zXzX.X).T )._.>XU 4 a.p.=.Q !.",
"|.Z s.s.l. .# . * * @ > #XkX@XfX1X+X6XzXxXvXzXfX1X#XF :.XX2XkXoX3XzXoX).).).).).T c u g.4.<.Q Q.",
"{.n @.d.k. .X   * 6 h <XxX7X4X3XR 3XkXkX6XgXzXzX4X:XoXb A F H w.kXjXR R ).).)._.).c y f.+.:.U W.",
"{.P 4.j.d.) X . . = <XnXkXkX6X1X X+XXX$X$XXX>X5X6X.X+X_.8X2Xb ^ OX_.T T E f T _.).c u g.c.*.Q Q.",
"[.P =.a.s.) ; @ , 3XvXvXxXvXzX6XgX>X! a &.*.>X5X2X<X'.>XgXlXk , ; , , f & - h E _.c y s.4.&.Q Q.",
"{.P ..a.s.) = - XXnXbXlX<XxX6X6XfXfXC.Z.1.1.W 8X5X.X.X8X:XgXk o & O O & f j * * J c u a.t.*.Q !.",
"{.L @.j.s.) & 7 cXxX<XY R  XE kXzXC.1.>.1.1.c Y _..X5XOX2X2X; o = o , & OXm *   o < u p.s.=.U Q.",
"{.P @.s.s.) X < cX X~ c , b M  X<X>.S.n.Y.S.,.p ^ 2XOX8X5X_.= O o & E .XxXE - @ . + y a.a.=.U E.",
"{.I @.s.s.) X = ! W >   $ J.:.m #XG S.S.n.n.*.D Y XX4X+X_.OXT k X = E 3XOXk - * @ ; u a.d...N E.",
"].N p.a.s.) X   > h z 6 s P.b.a r B J.C.C.w.w.+XM W :X.X4XOX_.>XT J T J m E m x . ; u a.d.a.C E.",
"].C s.d.d.) X   6 z 0.l ,.b.<.C Y  XOX4X6X1XT a &.C :X:X.XoXfX:X! n b F b 7 l ! Y ; u a.f.f.&.E.",
"].C s.f.h.( #   6 6 6 r 2 7 Y Y ! Y b <.G b a a V ^ 2X_.>XgX:X_.oX#Xb ;.,.e @ T :X; u a.f.f.=.E.",
"].C f.f.l.i X   @ @ $ e X < B F &.t *.n.F s r k n oX4X8X:X_._.gXmXxXXXF ,.a , :X X+ u g.f.f.=.!.",
"}.A f.l.f.) ; @ j 6 p r e X. .F s &.t e c '.oX! oXoXoX X XoXlXxX5X4X#XW ~ +XfX7Xk + u a.d.s.=.Q.",
"[.A f.d.s.) > z z l J.M.1.J.b.J.*.a s b 5XnXnXnXxX<XgXfXfXxXzX:XkXzXzX3X3X2XlX@X- + u a.s.h.=.E.",
"[.Z s.s.s.) 7 0.z D ,.;.>.J.,.;.,.*.&.w.vXvXzXfXfX4XOXvXvXvX4X2XnXvXvXxX6X+XW h . + p a.s.h.=.E.",
"].C a.s.s.` h 0.z F b.=.F b.,.,.n.-.;.b  X2X>XD b V F C.2XxXzX#XcXnXvXxXkX~ a @   ; 3 t.s.h.;.Q.",
"].C s.p.s.) 7 j 6 r 1.1.F b.;.b.n.*.b.s a ^ 1X6X2X~ 1.b.:.H w.Q T +X:XOX Xm J f . ; 3 <.s.h.;.!.",
"].C s.s.s.) > z q.> y J.=.b.,.2.b.&.b.1. .3 b ! <X Xb :.b.,.1.1.V a H J n E R m . ; v :.t.s.=.!.",
"|.A s.f.d.) > z 6 7 % s b.b.,.b.,.1.*.2 X O , T m b c D V >.,.n.,.F *.e c Y T Y & ; v 7.c.s.=.W.",
"}.C s.f.d.) 7 z z z 7 : e a e a a V 2 O   o O : 2 p s V p p e y y 3 2 ; f f f k - ; S &Xc.d.1.!.",
"].C s.f.s.) x q.h 6 j h ; % : % : % $ + $ % % % % % : % % : % % : % o X o o O & = 7 S b.c.h.=.!.",
"].C s.f.d. .r r r 2 r 3 2 1 1 1 1 1 1 1 1 1 1 1 1 1 1 1 1 1 1 1 1 1 1 1 1 1 1 1 2 1 t ,.g.h.=.W.",
"].C f.l.a.] O.{ w @.| w O.} { | ( O.#.O.} } +.e.r.t.O.( } ] ] _ ( ( O.O./ { ( _ [ [ ..X.} e.=.E.",
"].Z f.f.r.9 } ` a <.=.u M.w d s 3 [ ] ' / / i.s.s.a.i./ O.' / w / 0 O.O.0 } / w ( ( / 0 i } =.E.",
"|.A d.i.#.3.9.9.I.I.0XA.9XA.H.H.I.I.Y.9.n.I.U.T.T.U.U.U.U.I.U.I.I.I.U.U.U.I.U.U.I.U.I.4.O.r.=.E.",
"|.A s.i.P.V.&XG 7.6.*X5.&X-X=X%X%X5.7.&XF.aXaXaXaXsXaXaXaXaXaXaXpXpXaXaXsXsXaXaXaXaXaX0X@.j.=.W.",
"{.C s.i.Y.D.F.5.-X7.V.8.D.D.B.%XD.%XD.&X%XaXaXiXpXrXpXrXdXpXdXdXaXpXpXiXpXaXpXaXaXpXaX0X4.c.=.W.",
"].C d.i.Y.;X7.V.5.V.N.D.D.eXQ =X5.eX7.&X&XqX*XD.&X-XF.%X7.V.5.5.eXD.%X8.rXaXaXaXaXaXaX0X3.<.=.Q.",
"].C f.s.Y.tX7.%XG 6.Z N.D.&XG V.N.*XG 6.qX=X;X=XqX=X;X*X;X;X*X=XrXqXqX;XpXpXaXaXaXpXaX0X3.>.-.W.",
"].C d.j.Y.yXG %X7.V.6.B.5.5.V.N.D.F.N.6.=XtXiXiXrXrXrXtXrXdXrXrXrXrXrXrXrXrXrXrXrXrXrX0X3.3.=.W.",
"].C d.a.P.9X&X&X&X&X&X&X&XF.B.5.N.V.B.B.N.B.D.B.-X-X-X-X*X7.-X7.V.V.-XB.B.V.5.-XF.%X-X9X3.<.=.W.",
"].C s.i.Y.sXaXaXaXaXsXaXpXQ 5.V.D.Q %XB.=XD.%X7.7.7.-XV.rX6.7.G 5.V.%X&XV.-X-XB.7.V.7.0X4.4.*.!.",
"{.N t.i.4.0XwXuXwXwXwXwX0XZ.A.G.9XZ.A.H.I.G.I.G.9XH.I.H.0XZ.G.9.A.I.H.I.2.I.G.I.H.I.G.Z.#.M.V !.",
"}.g c _ 5 } #.+.{ +.' } +./ +.s.j.s.g.#._ } w w { } { } _ } / { { { } _ { ' ' ' { / /  .M W k !.",
"{.g g C & < t X.i X.y s X.i  .4.@.y.@.s e i y 2 e d y y y i e s  .d e e u e e e e y 3 s J P g ^.",
"hX}.Q.~.~.^.^.~./.^./.^.`.`.`.`.`.(.~.~.~.~.~.(.^.~.~.`.`.`.`.`.~.`.`.`.`.~.~.~.`.~.`.^.^.`.}.jX"
};